<?xml version="1.0" encoding="UTF-8"?>
<svg width="23px" height="18px" viewBox="0 0 23 18" version="1.1" xmlns="http://www.w3.org/2000/svg" xmlns:xlink="http://www.w3.org/1999/xlink">
    <!-- Generator: Sketch 52.2 (67145) - http://www.bohemiancoding.com/sketch -->
    <title>Path</title>
    <desc>Created with Sketch.</desc>
    <g id="Page-1" stroke="none" stroke-width="1" fill="none" fill-rule="evenodd">
        <g id="Объявление-кредитора" transform="translate(-1438.000000, -3304.000000)" fill="#FFFFFF">
            <g id="Group-13" transform="translate(0.000000, 2719.000000)">
                <g id="Group-12" transform="translate(320.000000, 486.000000)">
                    <g id="correct-symbol-(1)" transform="translate(1118.000000, 99.000000)">
                        <path d="M22.1259638,2.37129513 L20.1489101,0.404813266 C19.8778214,0.134971519 19.5481257,0 19.160587,0 C18.7726918,0 18.4429961,0.134971519 18.1719074,0.404813266 L8.63522538,9.90483304 L4.36119871,5.63917592 C4.08980445,5.36923288 3.76031248,5.2344133 3.37277371,5.2344133 C2.98498035,5.2344133 2.65548838,5.36923288 2.38409412,5.63917592 L0.40704046,7.60570842 C0.135646208,7.87560082 1.42108547e-13,8.2034322 1.42108547e-13,8.58910129 C1.42108547e-13,8.9744665 0.135646208,9.30260177 0.40704046,9.57244351 L5.66949213,14.8066542 L7.64669854,16.7731361 C7.91794004,17.0431804 8.24753385,17.178 8.63522538,17.178 C9.02276415,17.178 9.35235796,17.0428259 9.62375221,16.7731361 L11.6009077,14.8066542 L22.1259638,4.33792892 C22.3971035,4.06798588 22.5330043,3.74020514 22.5330043,3.35453605 C22.5332079,2.96906955 22.3971035,2.64123816 22.1259638,2.37129513 Z" id="Path"></path>
                    </g>
                </g>
            </g>
        </g>
    </g>
</svg>