<?xml version="1.0" encoding="UTF-8"?>
<svg width="24px" height="24px" viewBox="0 0 24 24" version="1.1" xmlns="http://www.w3.org/2000/svg" xmlns:xlink="http://www.w3.org/1999/xlink">
    <!-- Generator: Sketch 52.2 (67145) - http://www.bohemiancoding.com/sketch -->
    <title>telephone (1)</title>
    <desc>Created with Sketch.</desc>
    <g id="Page-1" stroke="none" stroke-width="1" fill="none" fill-rule="evenodd">
        <g id="Объявление-кредитора" transform="translate(-320.000000, -4041.000000)" fill="#D8232A">
            <g id="Group-16" transform="translate(320.000000, 3718.000000)">
                <g id="Group-21">
                    <g id="Group-20" transform="translate(0.000000, 318.000000)">
                        <g id="telephone-(1)" transform="translate(0.000000, 5.000000)">
                            <path d="M18.2297214,15.8619543 C17.4463534,15.0885655 16.4683909,15.0885655 15.6900125,15.8619543 C15.0962495,16.4507277 14.5024865,17.039501 13.9187027,17.6382536 C13.7590353,17.8029106 13.624316,17.8378378 13.4297214,17.7280665 C13.0455218,17.5185031 12.6363742,17.3488565 12.2671435,17.1193347 C10.5457297,16.0365904 9.10373389,14.6444906 7.82639501,13.0777547 C7.19271518,12.2993763 6.62888981,11.4661123 6.23471102,10.5280665 C6.15487734,10.3384615 6.16984615,10.2137214 6.32452391,10.0590437 C6.9182869,9.48523909 7.49708108,8.8964657 8.08086486,8.30769231 C8.89417048,7.48939709 8.89417048,6.53139293 8.07587526,5.70810811 C7.611842,5.23908524 7.14780873,4.78004158 6.68377547,4.31101871 C6.20477339,3.83201663 5.73076091,3.34802495 5.24676923,2.87401247 C4.46340125,2.11060291 3.48543867,2.11060291 2.70706029,2.87900208 C2.10830769,3.46777547 1.53450312,4.07151767 0.92577131,4.65031185 C0.361945946,5.18419958 0.0775384615,5.83783784 0.0176632017,6.6012474 C-0.0771392931,7.84365904 0.227226611,9.01621622 0.65633264,10.1588358 C1.53450312,12.5239085 2.87171726,14.6245322 4.49333888,16.5505198 C6.68377547,19.1550936 9.29832848,21.2158004 12.3569563,22.7027027 C13.7340873,23.3713098 15.1611143,23.8852391 16.7128815,23.9700624 C17.780657,24.0299376 18.7087235,23.760499 19.4521746,22.9272349 C19.9611143,22.35842 20.5349189,21.839501 21.0737963,21.2956341 C21.8721331,20.4873181 21.8771227,19.5093555 21.0837755,18.7110187 C20.1357505,17.7580042 19.182736,16.8099792 18.2297214,15.8619543 Z" id="Path"></path>
                            <path d="M17.2767069,11.8852391 L19.1178711,11.570894 C18.828474,9.87941788 18.0301372,8.34760915 16.8176632,7.13014553 C15.5353347,5.84781705 13.9137131,5.03950104 12.1274345,4.79002079 L11.8679751,6.64116424 C13.2500956,6.83575884 14.5074761,7.45945946 15.5004075,8.45239085 C16.4384532,9.39043659 17.0521746,10.5779626 17.2767069,11.8852391 Z" id="Path"></path>
                            <path d="M20.1557089,3.88191268 C18.0301372,1.75634096 15.3407401,0.414137214 12.3719252,0 L12.1124657,1.85114345 C14.6771227,2.21039501 17.0022786,3.37297297 18.8384532,5.204158 C20.5798254,6.94553015 21.7224449,9.14594595 22.1365821,11.5659044 L23.9777464,11.2515593 C23.4937547,8.44740125 22.1715094,5.9027027 20.1557089,3.88191268 Z" id="Path"></path>
                        </g>
                    </g>
                </g>
            </g>
        </g>
    </g>
</svg>