<?xml version="1.0" encoding="UTF-8"?>
<svg width="20px" height="27px" viewBox="0 0 20 27" version="1.1" xmlns="http://www.w3.org/2000/svg" xmlns:xlink="http://www.w3.org/1999/xlink">
    <!-- Generator: Sketch 52.2 (67145) - http://www.bohemiancoding.com/sketch -->
    <title>Shape</title>
    <desc>Created with Sketch.</desc>
    <g id="Page-1" stroke="none" stroke-width="1" fill="none" fill-rule="evenodd">
        <g id="Объявление-кредитора" transform="translate(-320.000000, -4142.000000)" fill="#D8232A" fill-rule="nonzero">
            <g id="Group-16" transform="translate(320.000000, 3718.000000)">
                <g id="Group-21">
                    <g id="Group-17" transform="translate(0.000000, 418.000000)">
                        <g id="placeholder-filled-point-2" transform="translate(0.000000, 6.000000)">
                            <g id="placeholder-filled-point">
                                <path d="M10.0972603,0 C4.66328767,0 0.241917808,4.44618367 0.241917808,9.91120408 C0.241917808,11.3366939 0.532054795,12.6977143 1.10383562,13.9567959 C3.56794521,19.3791122 8.29232877,25.1039388 9.68191781,26.7291735 C9.7860274,26.8506735 9.93780822,26.9206531 10.0975342,26.9206531 C10.2572603,26.9206531 10.4090411,26.8506735 10.5131507,26.7291735 C11.9021918,25.1042143 16.6265753,19.3796633 19.0915068,13.9567959 C19.6635616,12.6977143 19.9534247,11.3366939 19.9534247,9.91120408 C19.9528767,4.44618367 15.5315068,0 10.0972603,0 Z M10.0972603,15.0591122 C7.27452055,15.0591122 4.97780822,12.7495102 4.97780822,9.91092857 C4.97780822,7.07207143 7.27452055,4.76246939 10.0972603,4.76246939 C12.92,4.76246939 15.2167123,7.07207143 15.2167123,9.91092857 C15.2169863,12.7495102 12.920274,15.0591122 10.0972603,15.0591122 Z" id="Shape"></path>
                            </g>
                        </g>
                    </g>
                </g>
            </g>
        </g>
    </g>
</svg>