<svg width="90" height="81" viewBox="0 0 90 81" fill="none" xmlns="http://www.w3.org/2000/svg">
<path fill-rule="evenodd" clip-rule="evenodd" d="M0.445801 39.8043H11.159V21.6057H0.445801V39.8043Z" fill="#D8232A"/>
<path fill-rule="evenodd" clip-rule="evenodd" d="M27.9952 39.8043H38.7077V21.6057H27.9952V39.8043Z" fill="#D8232A"/>
<path fill-rule="evenodd" clip-rule="evenodd" d="M38.7079 7.68853L31.1328 0.0808105L19.577 11.6864L8.02117 0.0808105L0.446075 7.68853L19.577 26.9019L38.7079 7.68853Z" fill="#D8232A"/>
<path fill-rule="evenodd" clip-rule="evenodd" d="M46.3628 0.0810547V10.8397H51.6579V39.8039H62.3703V0.0810547H46.3628Z" fill="#D8232A"/>
<path fill-rule="evenodd" clip-rule="evenodd" d="M10.2078 64.6312C10.6788 63.9877 10.9149 63.1603 10.9149 62.1751C10.9149 61.1905 10.6788 60.3624 10.2078 59.7182C9.73756 59.0754 9.05699 58.7463 8.15491 58.7463C7.25283 58.7463 6.55967 59.0754 6.08802 59.7182C5.61776 60.3624 5.38229 61.1905 5.38229 62.1751C5.38229 63.1603 5.61776 63.9877 6.08802 64.6312C6.55967 65.2754 7.25283 65.6039 8.15491 65.6039C9.05699 65.6039 9.73756 65.2754 10.2078 64.6312ZM11.3719 58.681C12.144 59.5877 12.5228 60.7568 12.5228 62.1751C12.5228 63.5933 12.144 64.7624 11.3719 65.6691C10.6005 66.5758 9.52794 67.0354 8.15491 67.0354C6.88599 67.0354 5.86582 66.641 5.10768 65.853C4.36142 65.0649 3.93099 64.0403 3.81221 62.7667H2.05976V66.8642H0.491074V57.486H2.05976V61.2951H3.85204C3.99598 60.0993 4.45366 59.1407 5.19922 58.4179C5.94478 57.6831 6.93839 57.3154 8.15491 57.3154C9.52794 57.3154 10.6005 57.7744 11.3719 58.681Z" fill="black"/>
<path fill-rule="evenodd" clip-rule="evenodd" d="M15.5201 63.515C15.5201 64.7887 16.1476 65.7746 17.3648 65.7746C18.5289 65.7746 19.1822 64.8679 19.1822 63.515C19.1822 62.162 18.5289 61.2687 17.3648 61.2687C16.1476 61.2687 15.5201 62.2413 15.5201 63.515ZM14.0814 60.1788H15.5068V60.8223H15.8213C16.2524 60.2841 16.9064 60.0083 17.7826 60.0083C18.6589 60.0083 19.3653 60.3367 19.8754 60.9929C20.398 61.6497 20.6594 62.4904 20.6594 63.515C20.6594 64.5529 20.398 65.3936 19.8754 66.0497C19.3653 66.7065 18.6589 67.0357 17.7826 67.0357C16.9197 67.0357 16.2789 66.7592 15.873 66.2209H15.5599V69.4918H14.0814V60.1788Z" fill="black"/>
<path fill-rule="evenodd" clip-rule="evenodd" d="M23.7221 66.8641H22.0479V60.1792H23.4866V64.5918H23.8004L26.5339 60.1792H28.2472V66.8641H26.8092V62.4508H26.4947L23.7221 66.8641Z" fill="black"/>
<path fill-rule="evenodd" clip-rule="evenodd" d="M34.9839 65.6038V61.4388H32.4866V62.0697C32.4866 63.396 32.2903 64.5785 31.8843 65.6038H34.9839ZM36.4618 65.6038H37.665V68.7434H36.2521V66.8641H30.9172V68.7434H29.5037V65.6038H30.4456C30.9032 64.5132 31.1394 63.3315 31.1394 62.0564V60.1792H36.4618V65.6038Z" fill="black"/>
<path fill-rule="evenodd" clip-rule="evenodd" d="M40.4388 66.8641H38.7646V60.1792H40.204V64.5918H40.5178L43.2513 60.1792H44.9646V66.8641H43.5266V62.4508H43.2121L40.4388 66.8641Z" fill="black"/>
<path fill-rule="evenodd" clip-rule="evenodd" d="M46.3651 60.1787H47.843V62.1092C47.843 62.4636 47.8688 62.6349 48.0393 62.8973C48.2098 63.1471 48.6277 63.265 49.3083 63.265C49.7792 63.265 50.2627 63.2124 50.7595 63.1078V60.1787H52.2507V66.8636H50.7595V64.3422C50.1971 64.4608 49.5696 64.5261 48.8897 64.5261C48.0002 64.5261 47.3462 64.3296 46.9933 64.0664C46.4441 63.5934 46.3651 62.9899 46.3651 62.3064V60.1787Z" fill="black"/>
<path fill-rule="evenodd" clip-rule="evenodd" d="M55.1684 62.543H58.5028C58.3994 61.755 57.8362 61.1901 56.9076 61.1901C55.9265 61.1901 55.3389 61.715 55.1684 62.543ZM60.0205 63.6462H55.1034C55.1426 65.0651 55.7693 65.7739 56.9733 65.7739C57.7454 65.7739 58.2296 65.4848 58.4253 64.9199H59.929C59.6669 66.1943 58.6342 67.035 56.96 67.035C55.9265 67.035 55.1167 66.7065 54.5277 66.0497C53.9393 65.3936 53.6382 64.5402 53.6382 63.4757C53.6382 62.4118 53.926 61.5711 54.5144 60.9536C55.1034 60.3227 55.914 60.0083 56.9209 60.0083C57.8753 60.0083 58.6342 60.3094 59.1708 60.9009C59.72 61.4918 60.0072 62.2406 60.0205 63.1472V63.6462Z" fill="black"/>
<path fill-rule="evenodd" clip-rule="evenodd" d="M67.4906 64.7238C67.281 66.1288 66.1434 67.0354 64.5607 67.0354C63.5406 67.0354 62.73 66.7063 62.1417 66.0635C61.5527 65.4193 61.2648 64.5652 61.2648 63.5147C61.2648 62.4775 61.5527 61.6235 62.1417 60.98C62.73 60.3365 63.5406 60.0081 64.5607 60.0081C66.1434 60.0081 67.2418 60.8874 67.4382 62.2144H65.9736C65.7773 61.5842 65.3063 61.2684 64.574 61.2684C63.331 61.2684 62.7426 62.2017 62.7426 63.5021C62.7426 64.8284 63.331 65.7744 64.574 65.7744C65.3846 65.7744 65.8688 65.4193 66.0253 64.7238H67.4906Z" fill="black"/>
<path fill-rule="evenodd" clip-rule="evenodd" d="M73.6906 66.8641L72.2777 64.0669H70.5644V66.8641H69.0866V60.1792H70.5644V62.8059H72.3043L73.6382 60.1792H75.1552L73.5208 63.3967L75.2474 66.8641H73.6906Z" fill="black"/>
<path fill-rule="evenodd" clip-rule="evenodd" d="M80.3492 65.3404C80.6895 65.012 80.8593 64.6183 80.8593 64.158V63.6464H79.1592C78.2306 63.6464 77.7463 64.0534 77.7463 64.7489C77.7463 65.4324 78.2432 65.8261 79.0935 65.8261C79.5903 65.8261 80.0096 65.6696 80.3492 65.3404ZM80.9117 66.864V66.2471H80.5972C80.1919 66.772 79.5386 67.0352 78.6358 67.0352C77.9036 67.0352 77.3285 66.8247 76.8967 66.405C76.4648 65.9706 76.2559 65.459 76.2559 64.8415C76.2559 64.2373 76.4774 63.7124 76.9092 63.2654C77.3411 62.8183 78.0084 62.5959 78.8979 62.5959H80.8593V62.3987C80.8593 61.6233 80.4016 61.1769 79.4604 61.1769C78.6358 61.1769 78.1914 61.4661 78.1258 62.0303H76.6619C76.7262 60.7825 77.826 60.0078 79.4073 60.0078C81.1995 60.0078 82.2847 60.8092 82.2847 62.4247V66.864H80.9117Z" fill="black"/>
<path fill-rule="evenodd" clip-rule="evenodd" d="M88.4065 63.2784V61.3871H86.654C85.8694 61.3871 85.4774 61.7022 85.4774 62.3324C85.4774 62.9633 85.8694 63.2784 86.654 63.2784H88.4065ZM89.8843 60.1787V66.8636H88.4065V64.4341H86.8371C86.6275 64.4341 86.4703 64.4341 86.3655 64.4208L85.4375 66.8636H83.9464L85.0183 64.1064C84.3517 63.7513 84.0114 63.1471 84.0114 62.3198C84.0114 60.9927 84.9274 60.1787 86.536 60.1787H89.8843Z" fill="black"/>
<path fill-rule="evenodd" clip-rule="evenodd" d="M10.6664 74.9718C9.4506 74.9718 8.78399 75.957 8.78399 77.2181C8.78399 78.4925 9.4506 79.4777 10.6664 79.4777C11.8829 79.4777 12.5495 78.4925 12.5495 77.2181C12.5495 75.957 11.8829 74.9718 10.6664 74.9718ZM13.112 79.7669C12.5118 80.4097 11.6999 80.7388 10.6664 80.7388C9.63367 80.7388 8.82243 80.4097 8.20753 79.7669C7.60661 79.1093 7.30545 78.256 7.30545 77.2181C7.30545 76.1809 7.60661 75.3402 8.20753 74.696C8.82243 74.0398 9.63367 73.7114 10.6664 73.7114C11.6999 73.7114 12.5118 74.0398 13.112 74.696C13.7269 75.3402 14.0288 76.1809 14.0288 77.2181C14.0288 78.256 13.7269 79.1093 13.112 79.7669Z" fill="black"/>
<path fill-rule="evenodd" clip-rule="evenodd" d="M15.4157 80.5675V73.8826H17.5217L19.0121 76.811H19.3259L20.8044 73.8826H22.8965V80.5675H21.4578V75.7598H21.144L19.8499 78.2692H18.4629L17.1689 75.7598H16.8544V80.5675H15.4157Z" fill="black"/>
<path fill-rule="evenodd" clip-rule="evenodd" d="M30.7976 80.5675H29.3197V75.1429H26.1544V80.5675H24.6766V73.8826H30.7976V80.5675Z" fill="black"/>
<path fill-rule="evenodd" clip-rule="evenodd" d="M36.1753 79.0438C36.5149 78.7154 36.6847 78.3217 36.6847 77.8614V77.3498H34.9847C34.0567 77.3498 33.5718 77.7568 33.5718 78.4522C33.5718 79.1357 34.0686 79.5294 34.919 79.5294C35.4158 79.5294 35.835 79.3729 36.1753 79.0438ZM36.7378 80.5673V79.9505H36.4227C36.0174 80.4754 35.3641 80.7386 34.4613 80.7386C33.729 80.7386 33.154 80.528 32.7221 80.1084C32.2903 79.674 32.0814 79.1624 32.0814 78.5449C32.0814 77.9407 32.3036 77.4157 32.7347 76.9687C33.1665 76.5217 33.8338 76.2993 34.7233 76.2993H36.6847V76.1021C36.6847 75.3266 36.227 74.8803 35.2858 74.8803C34.4613 74.8803 34.0169 75.1694 33.9512 75.7336H32.4874C32.5516 74.4859 33.6508 73.7112 35.2327 73.7112C37.025 73.7112 38.1102 74.5126 38.1102 76.128V80.5673H36.7378Z" fill="black"/>
<path fill-rule="evenodd" clip-rule="evenodd" d="M45.9721 80.5675H44.4935V77.7703H41.2765V80.5675H39.7987V73.8826H41.2765V76.5099H44.4935V73.8826H45.9721V80.5675Z" fill="black"/>
<path fill-rule="evenodd" clip-rule="evenodd" d="M49.4256 80.5675H47.7514V73.8826H49.1901V78.2952H49.5045L52.2373 73.8826H53.9513V80.5675H52.5126V76.1541H52.1989L49.4256 80.5675Z" fill="black"/>
<path fill-rule="evenodd" clip-rule="evenodd" d="M59.9033 76.982V75.0907H58.1509C57.3662 75.0907 56.9742 75.4058 56.9742 76.036C56.9742 76.6669 57.3662 76.982 58.1509 76.982H59.9033ZM61.3812 73.8823V80.5672H59.9033V78.1378H58.3339C58.1243 78.1378 57.9671 78.1378 57.8623 78.1244L56.9344 80.5672H55.4432L56.5151 77.81C55.8485 77.455 55.5089 76.8507 55.5089 76.0234C55.5089 74.6964 56.4243 73.8823 58.0335 73.8823H61.3812Z" fill="black"/>
<path fill-rule="evenodd" clip-rule="evenodd" d="M4.94711 80.1993L3.57966 77.4913H1.92154V80.1993H0.491211V73.7271H1.92154V76.2702H3.60482L4.8968 73.7271H6.36556L4.7829 76.8421L6.4536 80.1993H4.94711Z" fill="black"/>
</svg>
