<?xml version="1.0" encoding="UTF-8"?>
<svg width="239px" height="57px" viewBox="0 0 239 57" version="1.1" xmlns="http://www.w3.org/2000/svg" xmlns:xlink="http://www.w3.org/1999/xlink">
    <!-- Generator: Sketch 52.2 (67145) - http://www.bohemiancoding.com/sketch -->
    <title>Group 2</title>
    <desc>Created with Sketch.</desc>
    <g id="Page-1" stroke="none" stroke-width="1" fill="none" fill-rule="evenodd">
        <g id="Объявление-кредитора" transform="translate(-320.000000, -40.000000)">
            <g id="Первый-экран">
                <g id="Group-2" transform="translate(320.000000, 40.000000)">
                    <g id="Group">
                        <g id="Group-9" fill="#D8232A">
                            <polygon id="Fill-249" points="0.638 56.721 15.97 56.721 15.97 30.788 0.638 30.788"></polygon>
                            <polygon id="Fill-250" points="40.065 56.721 55.396 56.721 55.396 30.788 40.065 30.788"></polygon>
                            <polygon id="Fill-251" points="55.3964 10.9563 44.5554 0.1153 28.0174 16.6533 11.4794 0.1153 0.6384 10.9563 28.0174 38.3353"></polygon>
                            <polygon id="Fill-252" points="66.3515 0.1155 66.3515 15.4465 73.9295 15.4465 73.9295 56.7205 89.2605 56.7205 89.2605 0.1155"></polygon>
                        </g>
                        <g id="Group-290" transform="translate(110.000000, 11.280000)" fill="#000000">
                            <path d="M14.6088,10.8745 C15.2828,9.9575 15.6208,8.7785 15.6208,7.3745 C15.6208,5.9715 15.2828,4.7915 14.6088,3.8735 C13.9358,2.9575 12.9618,2.4885 11.6708,2.4885 C10.3798,2.4885 9.3878,2.9575 8.7128,3.8735 C8.0398,4.7915 7.7028,5.9715 7.7028,7.3745 C7.7028,8.7785 8.0398,9.9575 8.7128,10.8745 C9.3878,11.7925 10.3798,12.2605 11.6708,12.2605 C12.9618,12.2605 13.9358,11.7925 14.6088,10.8745 M16.2748,2.3955 C17.3798,3.6875 17.9218,5.3535 17.9218,7.3745 C17.9218,9.3955 17.3798,11.0615 16.2748,12.3535 C15.1708,13.6455 13.6358,14.3005 11.6708,14.3005 C9.8548,14.3005 8.3948,13.7385 7.3098,12.6155 C6.2418,11.4925 5.6258,10.0325 5.4558,8.2175 L2.9478,8.2175 L2.9478,14.0565 L0.7028,14.0565 L0.7028,0.6925 L2.9478,0.6925 L2.9478,6.1205 L5.5128,6.1205 C5.7188,4.4165 6.3738,3.0505 7.4408,2.0205 C8.5078,0.9735 9.9298,0.4495 11.6708,0.4495 C13.6358,0.4495 15.1708,1.1035 16.2748,2.3955" id="Fill-254"></path>
                            <path d="M22.2114,9.2837 C22.2114,11.0987 23.1094,12.5037 24.8514,12.5037 C26.5174,12.5037 27.4524,11.2117 27.4524,9.2837 C27.4524,7.3557 26.5174,6.0827 24.8514,6.0827 C23.1094,6.0827 22.2114,7.4687 22.2114,9.2837 Z M20.1524,4.5297 L22.1924,4.5297 L22.1924,5.4467 L22.6424,5.4467 C23.2594,4.6797 24.1954,4.2867 25.4494,4.2867 C26.7034,4.2867 27.7144,4.7547 28.4444,5.6897 C29.1924,6.6257 29.5664,7.8237 29.5664,9.2837 C29.5664,10.7627 29.1924,11.9607 28.4444,12.8957 C27.7144,13.8317 26.7034,14.3007 25.4494,14.3007 C24.2144,14.3007 23.2974,13.9067 22.7164,13.1397 L22.2684,13.1397 L22.2684,17.8007 L20.1524,17.8007 L20.1524,4.5297 Z" id="Fill-256"></path>
                            <polygon id="Fill-258" points="33.9496 14.0562 31.5536 14.0562 31.5536 4.5302 33.6126 4.5302 33.6126 10.8182 34.0616 10.8182 37.9736 4.5302 40.4256 4.5302 40.4256 14.0562 38.3676 14.0562 38.3676 7.7672 37.9176 7.7672"></polygon>
                            <path d="M50.0668,12.2603 L50.0668,6.3253 L46.4928,6.3253 L46.4928,7.2243 C46.4928,9.1143 46.2118,10.7993 45.6308,12.2603 L50.0668,12.2603 Z M52.1818,12.2603 L53.9038,12.2603 L53.9038,16.7343 L51.8818,16.7343 L51.8818,14.0563 L44.2468,14.0563 L44.2468,16.7343 L42.2238,16.7343 L42.2238,12.2603 L43.5718,12.2603 C44.2268,10.7063 44.5648,9.0223 44.5648,7.2053 L44.5648,4.5303 L52.1818,4.5303 L52.1818,12.2603 Z" id="Fill-260"></path>
                            <polygon id="Fill-262" points="57.8735 14.0562 55.4775 14.0562 55.4775 4.5302 57.5375 4.5302 57.5375 10.8182 57.9865 10.8182 61.8985 4.5302 64.3505 4.5302 64.3505 14.0562 62.2925 14.0562 62.2925 7.7672 61.8425 7.7672"></polygon>
                            <path d="M66.3549,4.5298 L68.4699,4.5298 L68.4699,7.2808 C68.4699,7.7858 68.5069,8.0298 68.7509,8.4038 C68.9949,8.7598 69.5929,8.9278 70.5669,8.9278 C71.2409,8.9278 71.9329,8.8528 72.6439,8.7038 L72.6439,4.5298 L74.7779,4.5298 L74.7779,14.0558 L72.6439,14.0558 L72.6439,10.4628 C71.8389,10.6318 70.9409,10.7248 69.9679,10.7248 C68.6949,10.7248 67.7589,10.4448 67.2539,10.0698 C66.4679,9.3958 66.3549,8.5358 66.3549,7.5618 L66.3549,4.5298 Z" id="Fill-264"></path>
                            <path d="M78.9536,7.899 L83.7256,7.899 C83.5776,6.776 82.7716,5.971 81.4426,5.971 C80.0386,5.971 79.1976,6.719 78.9536,7.899 Z M85.8976,9.471 L78.8606,9.471 C78.9166,11.493 79.8136,12.503 81.5366,12.503 C82.6416,12.503 83.3346,12.091 83.6146,11.286 L85.7666,11.286 C85.3916,13.102 83.9136,14.3 81.5176,14.3 C80.0386,14.3 78.8796,13.832 78.0366,12.896 C77.1946,11.961 76.7636,10.745 76.7636,9.228 C76.7636,7.712 77.1756,6.514 78.0176,5.634 C78.8606,4.735 80.0206,4.287 81.4616,4.287 C82.8276,4.287 83.9136,4.716 84.6816,5.559 C85.4676,6.401 85.8786,7.468 85.8976,8.76 L85.8976,9.471 Z" id="Fill-266"></path>
                            <path d="M96.5883,11.0064 C96.2883,13.0084 94.6603,14.3004 92.3953,14.3004 C90.9353,14.3004 89.7753,13.8314 88.9333,12.9154 C88.0903,11.9974 87.6783,10.7804 87.6783,9.2834 C87.6783,7.8054 88.0903,6.5884 88.9333,5.6714 C89.7753,4.7544 90.9353,4.2864 92.3953,4.2864 C94.6603,4.2864 96.2323,5.5394 96.5133,7.4304 L94.4173,7.4304 C94.1363,6.5324 93.4623,6.0824 92.4143,6.0824 C90.6353,6.0824 89.7933,7.4124 89.7933,9.2654 C89.7933,11.1554 90.6353,12.5034 92.4143,12.5034 C93.5743,12.5034 94.2673,11.9974 94.4913,11.0064 L96.5883,11.0064 Z" id="Fill-268"></path>
                            <polygon id="Fill-270" points="105.4614 14.0562 103.4394 10.0702 100.9874 10.0702 100.9874 14.0562 98.8724 14.0562 98.8724 4.5302 100.9874 4.5302 100.9874 8.2732 103.4774 8.2732 105.3864 4.5302 107.5574 4.5302 105.2184 9.1152 107.6894 14.0562"></polygon>
                            <path d="M114.9907,11.8853 C115.4777,11.4173 115.7207,10.8563 115.7207,10.2003 L115.7207,9.4713 L113.2877,9.4713 C111.9587,9.4713 111.2657,10.0513 111.2657,11.0423 C111.2657,12.0163 111.9767,12.5773 113.1937,12.5773 C113.9047,12.5773 114.5047,12.3543 114.9907,11.8853 Z M115.7957,14.0563 L115.7957,13.1773 L115.3457,13.1773 C114.7657,13.9253 113.8307,14.3003 112.5387,14.3003 C111.4907,14.3003 110.6677,14.0003 110.0497,13.4023 C109.4317,12.7833 109.1327,12.0543 109.1327,11.1743 C109.1327,10.3133 109.4497,9.5653 110.0677,8.9283 C110.6857,8.2913 111.6407,7.9743 112.9137,7.9743 L115.7207,7.9743 L115.7207,7.6933 C115.7207,6.5883 115.0657,5.9523 113.7187,5.9523 C112.5387,5.9523 111.9027,6.3643 111.8087,7.1683 L109.7137,7.1683 C109.8057,5.3903 111.3797,4.2863 113.6427,4.2863 C116.2077,4.2863 117.7607,5.4283 117.7607,7.7303 L117.7607,14.0563 L115.7957,14.0563 Z" id="Fill-272"></path>
                            <path d="M126.5219,8.9468 L126.5219,6.2518 L124.0139,6.2518 C122.8909,6.2518 122.3299,6.7008 122.3299,7.5988 C122.3299,8.4978 122.8909,8.9468 124.0139,8.9468 L126.5219,8.9468 Z M128.6369,4.5298 L128.6369,14.0558 L126.5219,14.0558 L126.5219,10.5938 L124.2759,10.5938 C123.9759,10.5938 123.7509,10.5938 123.6009,10.5748 L122.2729,14.0558 L120.1389,14.0558 L121.6729,10.1268 C120.7189,9.6208 120.2319,8.7598 120.2319,7.5808 C120.2319,5.6898 121.5429,4.5298 123.8449,4.5298 L128.6369,4.5298 Z" id="Fill-274"></path>
                            <path d="M15.2651,25.6099 C13.5251,25.6099 12.5711,27.0139 12.5711,28.8109 C12.5711,30.6269 13.5251,32.0309 15.2651,32.0309 C17.0061,32.0309 17.9601,30.6269 17.9601,28.8109 C17.9601,27.0139 17.0061,25.6099 15.2651,25.6099 M18.7651,32.4429 C17.9061,33.3589 16.7441,33.8279 15.2651,33.8279 C13.7871,33.8279 12.6261,33.3589 11.7461,32.4429 C10.8861,31.5059 10.4551,30.2899 10.4551,28.8109 C10.4551,27.3329 10.8861,26.1349 11.7461,25.2169 C12.6261,24.2819 13.7871,23.8139 15.2651,23.8139 C16.7441,23.8139 17.9061,24.2819 18.7651,25.2169 C19.6451,26.1349 20.0771,27.3329 20.0771,28.8109 C20.0771,30.2899 19.6451,31.5059 18.7651,32.4429" id="Fill-276"></path>
                            <polygon id="Fill-278" points="22.062 33.5835 22.062 24.0575 25.076 24.0575 27.209 28.2305 27.658 28.2305 29.774 24.0575 32.768 24.0575 32.768 33.5835 30.709 33.5835 30.709 26.7325 30.26 26.7325 28.408 30.3085 26.423 30.3085 24.571 26.7325 24.121 26.7325 24.121 33.5835"></polygon>
                            <polygon id="Fill-280" points="44.0756 33.5835 41.9606 33.5835 41.9606 25.8535 37.4306 25.8535 37.4306 33.5835 35.3156 33.5835 35.3156 24.0575 44.0756 24.0575"></polygon>
                            <path d="M51.7719,31.4126 C52.2579,30.9446 52.5009,30.3836 52.5009,29.7276 L52.5009,28.9986 L50.0679,28.9986 C48.7399,28.9986 48.0459,29.5786 48.0459,30.5696 C48.0459,31.5436 48.7569,32.1046 49.9739,32.1046 C50.6849,32.1046 51.2849,31.8816 51.7719,31.4126 Z M52.5769,33.5836 L52.5769,32.7046 L52.1259,32.7046 C51.5459,33.4526 50.6109,33.8276 49.3189,33.8276 C48.2709,33.8276 47.4479,33.5276 46.8299,32.9296 C46.2119,32.3106 45.9129,31.5816 45.9129,30.7016 C45.9129,29.8406 46.2309,29.0926 46.8479,28.4556 C47.4659,27.8186 48.4209,27.5016 49.6939,27.5016 L52.5009,27.5016 L52.5009,27.2206 C52.5009,26.1156 51.8459,25.4796 50.4989,25.4796 C49.3189,25.4796 48.6829,25.8916 48.5889,26.6956 L46.4939,26.6956 C46.5859,24.9176 48.1589,23.8136 50.4229,23.8136 C52.9879,23.8136 54.5409,24.9556 54.5409,27.2576 L54.5409,33.5836 L52.5769,33.5836 Z" id="Fill-282"></path>
                            <polygon id="Fill-284" points="65.7924 33.5835 63.6764 33.5835 63.6764 29.5975 59.0724 29.5975 59.0724 33.5835 56.9574 33.5835 56.9574 24.0575 59.0724 24.0575 59.0724 27.8015 63.6764 27.8015 63.6764 24.0575 65.7924 24.0575"></polygon>
                            <polygon id="Fill-286" points="70.7348 33.5835 68.3388 33.5835 68.3388 24.0575 70.3978 24.0575 70.3978 30.3455 70.8478 30.3455 74.7588 24.0575 77.2118 24.0575 77.2118 33.5835 75.1528 33.5835 75.1528 27.2945 74.7038 27.2945"></polygon>
                            <path d="M85.7299,28.4742 L85.7299,25.7792 L83.2219,25.7792 C82.0989,25.7792 81.5379,26.2282 81.5379,27.1262 C81.5379,28.0252 82.0989,28.4742 83.2219,28.4742 L85.7299,28.4742 Z M87.8449,24.0572 L87.8449,33.5832 L85.7299,33.5832 L85.7299,30.1212 L83.4839,30.1212 C83.1839,30.1212 82.9589,30.1212 82.8089,30.1022 L81.4809,33.5832 L79.3469,33.5832 L80.8809,29.6542 C79.9269,29.1482 79.4409,28.2872 79.4409,27.1082 C79.4409,25.2172 80.7509,24.0572 83.0539,24.0572 L87.8449,24.0572 Z" id="Fill-288"></path>
                            <polygon id="Fill-253" points="7.08 33.0591 5.123 29.2001 2.75 29.2001 2.75 33.0591 0.703 33.0591 0.703 23.8361 2.75 23.8361 2.75 27.4601 5.159 27.4601 7.008 23.8361 9.11 23.8361 6.845 28.2751 9.236 33.0591"></polygon>
                        </g>
                    </g>
                </g>
            </g>
        </g>
    </g>
</svg>