<?xml version="1.0" encoding="UTF-8"?>
<svg width="100px" height="22px" viewBox="0 0 100 22" version="1.1" xmlns="http://www.w3.org/2000/svg" xmlns:xlink="http://www.w3.org/1999/xlink">
    <!-- Generator: Sketch 52.2 (67145) - http://www.bohemiancoding.com/sketch -->
    <title>Redder</title>
    <desc>Created with Sketch.</desc>
    <g id="Page-1" stroke="none" stroke-width="1" fill="none" fill-rule="evenodd">
        <g id="Объявление-кредитора" transform="translate(-1500.000000, -5175.000000)" fill="#000000">
            <g id="Футер" transform="translate(0.000000, 4936.000000)">
                <g id="Group-23" transform="translate(320.000000, 239.000000)">
                    <g id="Group-18" transform="translate(1014.000000, 0.000000)">
                        <g id="Redder-2" transform="translate(166.000000, 0.000000)">
                            <path d="M11.7183099,21.3615023 L7.41549296,13.9460094 L4.21126761,13.9460094 L4.21126761,21.3615023 L-1.13686838e-13,21.3615023 L-1.13686838e-13,-2.84217094e-13 L8.54460094,-2.84217094e-13 C10.5180067,-2.84217094e-13 12.1963937,0.691698873 13.5798122,2.07511737 C14.9632307,3.45853587 15.6549296,5.1267508 15.6549296,7.07981221 C15.6549296,8.40219754 15.278564,9.62792863 14.5258216,10.7570423 C13.7730792,11.8861559 12.776219,12.7355214 11.5352113,13.3051643 L16.2652582,21.3615023 L11.7183099,21.3615023 Z M4.21126761,3.93661972 L4.21126761,10.2535211 L8.54460094,10.2535211 C9.33803214,10.2535211 10.019559,9.94327384 10.5892019,9.32276995 C11.1588448,8.70226607 11.443662,7.95462096 11.443662,7.07981221 C11.443662,6.20500345 11.1588448,5.46244437 10.5892019,4.85211268 C10.019559,4.24178099 9.33803214,3.93661972 8.54460094,3.93661972 L4.21126761,3.93661972 Z M21.1173709,15.3497653 C21.646325,17.2621379 23.080583,18.2183099 25.4201878,18.2183099 C26.9256726,18.2183099 28.0649414,17.7097077 28.8380282,16.6924883 L32.0117371,18.5234742 C30.5062523,20.7003239 28.288747,21.7887324 25.3591549,21.7887324 C22.8364506,21.7887324 20.8122142,21.0258292 19.286385,19.5 C17.7605558,17.9741708 16.9976526,16.0516548 16.9976526,13.7323944 C16.9976526,11.4334783 17.7503837,9.51604837 19.2558685,7.98004695 C20.7613534,6.44404553 22.6940414,5.67605634 25.0539906,5.67605634 C27.2918735,5.67605634 29.1380991,6.44913155 30.592723,7.99530516 C32.0473469,9.54147878 32.7746479,11.4538227 32.7746479,13.7323944 C32.7746479,14.2410041 32.7237877,14.7801223 32.6220657,15.3497653 L21.1173709,15.3497653 Z M21.056338,12.2981221 L28.8380282,12.2981221 C28.6142399,11.2605582 28.151412,10.487483 27.4495305,9.97887324 C26.7476491,9.4702635 25.9491438,9.21596244 25.0539906,9.21596244 C23.9960823,9.21596244 23.1212867,9.48552156 22.4295775,10.0246479 C21.7378682,10.5637742 21.2801263,11.3215914 21.056338,12.2981221 Z M46.9647887,-2.84217094e-13 L50.9014085,-2.84217094e-13 L50.9014085,21.3615023 L46.9647887,21.3615023 L46.9647887,19.5610329 C45.8051585,21.0461733 44.1572877,21.7887324 42.0211268,21.7887324 C39.9663434,21.7887324 38.2116661,21.0105712 36.7570423,19.4542254 C35.3024184,17.8978795 34.5751174,15.9906216 34.5751174,13.7323944 C34.5751174,11.4741671 35.3024184,9.56690919 36.7570423,8.01056338 C38.2116661,6.45421757 39.9663434,5.67605634 42.0211268,5.67605634 C44.1572877,5.67605634 45.8051585,6.41861542 46.9647887,7.90375587 L46.9647887,-2.84217094e-13 Z M39.7018779,16.8450704 C40.5156535,17.6385016 41.5328577,18.0352113 42.7535211,18.0352113 C43.9741845,18.0352113 44.9812167,17.6334156 45.7746479,16.8298122 C46.5680791,16.0262088 46.9647887,14.9937465 46.9647887,13.7323944 C46.9647887,12.4710422 46.5680791,11.4385799 45.7746479,10.6349765 C44.9812167,9.83137313 43.9741845,9.42957746 42.7535211,9.42957746 C41.5328577,9.42957746 40.5207395,9.83137313 39.7171362,10.6349765 C38.9135328,11.4385799 38.5117371,12.4710422 38.5117371,13.7323944 C38.5117371,14.9937465 38.9084467,16.0312948 39.7018779,16.8450704 Z M66.0680751,-2.84217094e-13 L70.0046948,-2.84217094e-13 L70.0046948,21.3615023 L66.0680751,21.3615023 L66.0680751,19.5610329 C64.9084449,21.0461733 63.2605741,21.7887324 61.1244131,21.7887324 C59.0696298,21.7887324 57.3149525,21.0105712 55.8603286,19.4542254 C54.4057048,17.8978795 53.6784038,15.9906216 53.6784038,13.7323944 C53.6784038,11.4741671 54.4057048,9.56690919 55.8603286,8.01056338 C57.3149525,6.45421757 59.0696298,5.67605634 61.1244131,5.67605634 C63.2605741,5.67605634 64.9084449,6.41861542 66.0680751,7.90375587 L66.0680751,-2.84217094e-13 Z M58.8051643,16.8450704 C59.6189399,17.6385016 60.6361441,18.0352113 61.8568075,18.0352113 C63.0774709,18.0352113 64.0845031,17.6334156 64.8779343,16.8298122 C65.6713655,16.0262088 66.0680751,14.9937465 66.0680751,13.7323944 C66.0680751,12.4710422 65.6713655,11.4385799 64.8779343,10.6349765 C64.0845031,9.83137313 63.0774709,9.42957746 61.8568075,9.42957746 C60.6361441,9.42957746 59.6240259,9.83137313 58.8204225,10.6349765 C58.0168191,11.4385799 57.6150235,12.4710422 57.6150235,13.7323944 C57.6150235,14.9937465 58.0117331,16.0312948 58.8051643,16.8450704 Z M76.9319249,15.3497653 C77.460879,17.2621379 78.895137,18.2183099 81.2347418,18.2183099 C82.7402266,18.2183099 83.8794954,17.7097077 84.6525822,16.6924883 L87.8262911,18.5234742 C86.3208062,20.7003239 84.103301,21.7887324 81.1737089,21.7887324 C78.6510046,21.7887324 76.6267682,21.0258292 75.100939,19.5 C73.5751097,17.9741708 72.8122066,16.0516548 72.8122066,13.7323944 C72.8122066,11.4334783 73.5649377,9.51604837 75.0704225,7.98004695 C76.5759074,6.44404553 78.5085954,5.67605634 80.8685446,5.67605634 C83.1064275,5.67605634 84.9526531,6.44913155 86.407277,7.99530516 C87.8619009,9.54147878 88.5892019,11.4538227 88.5892019,13.7323944 C88.5892019,14.2410041 88.5383417,14.7801223 88.4366197,15.3497653 L76.9319249,15.3497653 Z M76.870892,12.2981221 L84.6525822,12.2981221 C84.4287939,11.2605582 83.965966,10.487483 83.2640845,9.97887324 C82.5622031,9.4702635 81.7636977,9.21596244 80.8685446,9.21596244 C79.8106363,9.21596244 78.9358407,9.48552156 78.2441315,10.0246479 C77.5524222,10.5637742 77.0946803,11.3215914 76.870892,12.2981221 Z M95.2723005,8.72769953 C95.6384995,7.75116883 96.243736,7.01878178 97.0880282,6.53051643 C97.9323203,6.04225108 98.8732342,5.79812207 99.9107981,5.79812207 L99.9107981,10.1924883 C98.7104791,10.0500775 97.6373287,10.2942065 96.6913146,10.9248826 C95.7453004,11.5555587 95.2723005,12.6032791 95.2723005,14.0680751 L95.2723005,21.3615023 L91.3356808,21.3615023 L91.3356808,6.10328638 L95.2723005,6.10328638 L95.2723005,8.72769953 Z" id="Redder"></path>
                        </g>
                    </g>
                </g>
            </g>
        </g>
    </g>
</svg>