<?xml version="1.0" encoding="UTF-8"?><svg xmlns="http://www.w3.org/2000/svg" xmlns:xlink="http://www.w3.org/1999/xlink"><style>:root>svg{display:none}:root>svg:target{display:block}</style><svg viewBox="0 0 113 121" id="calendar" xmlns="http://www.w3.org/2000/svg"><g fill="none" fill-rule="evenodd"><path fill="#F05565" d="M96.227 8.345v8.345H81.591V8.345H31.409v8.345H16.773V8.345H.045v22.948h112.91V8.345z"/><path fill="#EFEBDE" d="M16.773 31.293H.045V121h112.91V31.293H31.409z"/><path d="M77.41 45.897H16.772v60.5h79.454v-60.5H77.41zm-18.82 4.172h14.637v14.603H58.591V50.07zm14.637 33.38H58.591V68.844h14.636v14.603zM39.773 68.844h14.636v14.603H39.773V68.845zm0-18.776h14.636v14.603H39.773V50.07zm-18.818 0H35.59v14.603H20.955V50.07zm0 18.776H35.59v14.603H20.955V68.845zm14.636 33.38H20.955V87.62H35.59v14.603zm18.818 0H39.773V87.62h14.636v14.603zm18.818 0H58.591V87.62h14.636v14.603zm18.818 0H77.41V87.62h14.636v14.603zm0-18.777H77.41V68.845h14.636v14.603zM77.41 64.672V50.07h14.636v14.603H77.41z" fill="#D5D0BB" fill-rule="nonzero"/><path fill="#36495E" d="M16.773 0h14.636v16.69H16.773zM81.591 0h14.636v16.69H81.591z"/><path fill="#7F6E5D" d="M39.773 68.845h14.636v14.603H39.773z"/></g></svg><svg viewBox="0 0 115 121" id="file" xmlns="http://www.w3.org/2000/svg"><g fill="none" fill-rule="evenodd"><path fill="#EFEBDE" d="M93.922 29.207L64.716 0H.043v121h93.88z"/><g fill="#D5D0BB"><path d="M20.905 47.983H73.06a2.086 2.086 0 1 0 0-4.173H20.905a2.086 2.086 0 1 0 0 4.173zM20.905 31.293h20.862a2.086 2.086 0 1 0 0-4.172H20.905a2.086 2.086 0 1 0 0 4.172zM73.06 60.5H20.905a2.086 2.086 0 1 0 0 4.172H73.06a2.086 2.086 0 1 0 0-4.172zM73.06 77.19H20.905a2.086 2.086 0 1 0 0 4.172H73.06a2.086 2.086 0 1 0 0-4.172zM73.06 93.88H20.905a2.086 2.086 0 1 0 0 4.172H73.06a2.086 2.086 0 1 0 0-4.173z"/></g><path fill="#D5D0BB" d="M64.716 0v29.207h29.206z"/><g transform="translate(64.672 70.931)"><circle fill="#26B999" cx="25.078" cy="25.034" r="25.034"/><path d="M38.786 12.89a2.083 2.083 0 0 0-2.904.522L24.208 30.185l-8.239-6.763a2.084 2.084 0 0 0-2.935.29 2.082 2.082 0 0 0 .29 2.935l9.984 8.197a2.092 2.092 0 0 0 1.609.455 2.097 2.097 0 0 0 1.427-.874l12.964-18.628a2.09 2.09 0 0 0-.522-2.906z" fill="#FFF"/></g></g></svg><svg viewBox="0 0 520 333" id="m1" xmlns="http://www.w3.org/2000/svg"><g fill="#D8232A" fill-rule="evenodd"><path d="M0 333h90V181H0zM232 333h90V181h-90zM321 64.537L257.448 1 160.5 97.926 63.552 1 0 64.537 160.5 225zM385 0v89.92h44.656V332H520V0z"/></g></svg><svg viewBox="0 0 963 616" id="m1-white" xmlns="http://www.w3.org/2000/svg"><g fill="#FBFBFB" fill-rule="evenodd"><path d="M0 616h166V333H0zM430 616h166V333H430zM596 118.28L478.004 0 298 180.438 117.996 0 0 118.28 298 417zM714 0v166.839h82.366V616H963V0z"/></g></svg><svg viewBox="0 0 121 121" id="mace" xmlns="http://www.w3.org/2000/svg"><g fill="none" fill-rule="evenodd"><path d="M93.98 67.321l25.6 33.973c2.347 3.115 1.72 7.583-1.396 9.93-3.113 2.346-7.582 1.719-9.928-1.396L82.655 75.855l1.396-9.929 9.928 1.395z" fill="#B35F49"/><path d="M82.655 75.855l1.396-9.929 34.134 45.298c-3.114 2.346-7.583 1.719-9.93-1.396l-25.6-33.973z" fill="#804231"/><path fill="#C6715A" d="M69.852 58.868l11.323-8.534 12.8 16.986-11.324 8.534z"/><path fill="#99503D" d="M69.85 58.868l5.663-4.267 12.8 16.986-5.662 4.267z"/><path d="M84.143 13.035l12.374 16.421c.35 10.478-6.428 23.042-16.733 30.808-10.305 7.765-24.252 10.817-34.227 7.593l-12.374-16.42c-.35-10.478 6.428-23.043 16.733-30.81 10.305-7.764 24.251-10.816 34.227-7.592z" fill="#FFDA44"/><path d="M49.916 20.629l29.868 39.635c-10.305 7.765-24.252 10.817-34.227 7.593l-12.374-16.42c-.35-10.478 6.428-23.043 16.733-30.808z" fill="#EEBF00"/><path d="M105.264 41.064a7.09 7.09 0 0 1-9.93-1.396L74.001 11.357a7.09 7.09 0 1 1 11.325-8.533l21.333 28.31a7.09 7.09 0 0 1-1.395 9.93z" fill="#99503D"/><path d="M55.635 76.513a7.09 7.09 0 0 1-9.93-1.396L24.372 46.806a7.09 7.09 0 1 1 11.325-8.533l21.333 28.31a7.09 7.09 0 0 1-1.395 9.93z" fill="#804231"/><path d="M63.809 102.85v7.515a3.51 3.51 0 0 1-3.545 3.545h-49.63a3.51 3.51 0 0 1-3.544-3.545v-7.515c0-5.672 4.537-10.21 10.209-10.21h36.3c5.672 0 10.21 4.538 10.21 10.21z" fill="#99503D"/><path d="M63.809 102.85v7.515a3.51 3.51 0 0 1-3.545 3.545H35.449V92.64H53.6c5.672 0 10.21 4.538 10.21 10.21z" fill="#804231"/><path d="M63.809 106.82H7.089C3.19 106.82 0 110.01 0 113.91v3.545A3.51 3.51 0 0 0 3.545 121h63.809a3.51 3.51 0 0 0 3.544-3.545v-3.545c0-3.9-3.19-7.09-7.09-7.09z" fill="#B35F49"/><path d="M70.898 113.91v3.545A3.51 3.51 0 0 1 67.354 121H35.449v-14.18h28.36c3.899 0 7.09 3.19 7.09 7.09z" fill="#99503D"/></g></svg><svg viewBox="0 0 123 121" id="money" xmlns="http://www.w3.org/2000/svg"><g fill="none" fill-rule="evenodd"><path d="M106.65 59.907v2.54c0 14.216-23.874 25.74-53.322 25.74-16.255 0-30.801-3.516-40.582-9.053 3.298 12.808 25.71 23.408 52.887 23.408 29.448 0 53.322-12.444 53.322-26.66 0-6.252-4.626-11.76-12.305-15.975" fill="#FCC62D"/><path d="M65.633 102.542c-29.448 0-53.322-12.444-53.322-26.66v17.325c0 14.216 23.874 25.742 53.322 25.742 29.448 0 53.322-11.526 53.322-25.742V75.88c0 14.217-23.874 26.661-53.322 26.661" fill="#E4AF18"/><path d="M18.464 105.309a33.335 33.335 0 0 0 4.101 3.169V91.474a34.08 34.08 0 0 1-4.101-3.288v17.123zM108.701 91.474v17.004a33.136 33.136 0 0 0 4.102-3.169V88.186a33.76 33.76 0 0 1-4.102 3.288M26.667 110.869a55.898 55.898 0 0 0 4.102 1.905V95.971a56.079 56.079 0 0 1-4.102-2v16.898zM100.498 112.772a55.06 55.06 0 0 0 4.101-1.905V93.97a55.257 55.257 0 0 1-4.101 2v16.802zM34.87 114.324c1.325.454 2.693.876 4.102 1.27v-16.64a75.097 75.097 0 0 1-4.101-1.346v16.716zM92.294 115.594a75.245 75.245 0 0 0 4.102-1.27V97.608a75.097 75.097 0 0 1-4.102 1.345v16.641zM45.125 117.07c1.339.271 2.709.513 4.101.729v-16.497a90.309 90.309 0 0 1-4.101-.778v16.547zM82.04 117.799a96.737 96.737 0 0 0 4.102-.728v-16.549c-1.34.287-2.71.546-4.102.78v16.497zM57.43 118.742c1.35.1 2.72.17 4.102.22v-16.413a98.433 98.433 0 0 1-4.102-.236v16.429zM69.735 118.964c1.382-.052 2.752-.12 4.102-.22v-16.431c-1.35.108-2.72.182-4.102.238v16.413z" fill="#CE9912"/><path d="M53.328 71.765C23.88 71.765.006 59.321.006 45.105V62.43c0 14.216 23.874 25.742 53.322 25.742 29.448 0 53.322-11.526 53.322-25.742V45.104c0 14.217-23.874 26.661-53.322 26.661" fill="#E4AF18"/><path d="M6.159 74.532A33.335 33.335 0 0 0 10.26 77.7V60.697A34.272 34.272 0 0 1 6.16 57.41v17.12zM96.396 60.697V77.7a33.136 33.136 0 0 0 4.102-3.168V57.409a33.76 33.76 0 0 1-4.102 3.288M14.362 80.092a55.898 55.898 0 0 0 4.102 1.905V65.194a56.079 56.079 0 0 1-4.102-2v16.898zM88.193 81.995a54.246 54.246 0 0 0 4.101-1.905V63.193a55.257 55.257 0 0 1-4.101 2v16.802zM22.565 83.547c1.325.454 2.693.876 4.102 1.27v-16.64a75.096 75.096 0 0 1-4.102-1.346v16.716zM79.99 84.817a75.244 75.244 0 0 0 4.1-1.27V66.831a75.096 75.096 0 0 1-4.1 1.345v16.64zM32.82 86.294c1.339.27 2.709.512 4.101.728V70.525a90.309 90.309 0 0 1-4.101-.778v16.547zM69.735 87.024a96.737 96.737 0 0 0 4.102-.728V69.747c-1.34.287-2.71.546-4.102.78v16.497zM45.125 87.967c1.35.1 2.72.17 4.101.22V71.773a98.433 98.433 0 0 1-4.101-.236v16.429zM57.43 88.186c1.382-.05 2.752-.119 4.102-.219V71.536c-1.35.108-2.72.182-4.102.238v16.412z" fill="#CE9912"/><path d="M105.25 68.297c-5.49 11.395-26.643 19.89-51.922 19.89-9.442 0-18.306-1.19-25.998-3.268 7.44 5.052 20.682 9.35 38.303 9.35 28.06 0 45.119-10.892 45.119-18.388 0-2.502-1.926-5.155-5.503-7.584M63.582 67.678c-29.448 0-53.322-11.526-53.322-25.742V30.344C3.82 34.382.006 39.446.006 45.12c0 14.216 23.874 26.66 53.322 26.66 14.18 0 27.055-2.889 36.606-7.469-7.775 2.14-16.764 3.368-26.352 3.368" fill="#FFD949"/><path d="M63.582 51.257c-29.448 0-53.322-12.445-53.322-26.661V41.92c0 14.217 23.874 25.743 53.322 25.743 29.449 0 53.322-11.526 53.322-25.743V24.596c0 14.216-23.873 26.66-53.322 26.66" fill="#E4AF18"/><path d="M16.413 54.023a33.335 33.335 0 0 0 4.102 3.169V40.188a34.272 34.272 0 0 1-4.102-3.285v17.12zM106.65 40.188v17.004a33.136 33.136 0 0 0 4.102-3.169V36.901a33.76 33.76 0 0 1-4.102 3.287M24.616 59.583a55.898 55.898 0 0 0 4.102 1.906V44.686a56.08 56.08 0 0 1-4.102-2v16.897zM98.447 61.486a54.246 54.246 0 0 0 4.102-1.905V42.684a55.257 55.257 0 0 1-4.102 2v16.802zM32.82 63.039c1.325.453 2.692.876 4.101 1.27V47.667a75.097 75.097 0 0 1-4.101-1.346V63.04zM90.243 64.308a75.244 75.244 0 0 0 4.102-1.27V46.323a75.097 75.097 0 0 1-4.102 1.346v16.64zM43.074 65.785c1.34.27 2.71.513 4.102.728V50.016a90.309 90.309 0 0 1-4.102-.777v16.546zM79.99 66.515a96.737 96.737 0 0 0 4.1-.728V49.24c-1.338.287-2.708.545-4.1.78v16.496zM55.379 67.459c1.35.1 2.72.17 4.102.219V51.265a98.433 98.433 0 0 1-4.102-.236v16.43zM67.684 67.678c1.382-.051 2.752-.119 4.102-.22v-16.43c-1.35.108-2.72.182-4.102.237v16.413z" fill="#CE9912"/><path d="M116.904 24.61c0 14.217-23.873 26.661-53.322 26.661-29.448 0-53.322-12.444-53.322-26.66C10.26 10.393 34.134 0 63.582 0c29.449 0 53.322 10.394 53.322 24.61" fill="#FCC62D"/><path d="M63.582 42.998c-28.06 0-45.118-10.89-45.118-18.388 0-7.496 17.059-18.457 45.118-18.457 28.06 0 45.12 10.961 45.12 18.457 0 7.498-17.06 18.388-45.12 18.388" fill="#FFD949"/><path d="M77.49 27.397c1.68-.357 2.667-1.394 2.304-2.578l-.39-1.263c-.284-.929-1.394-1.704-2.754-2.09-1.85-3.952-6.566-5.383-13.572-5.383-.332 0-.656.008-.976.02-2.392.099-4.777-.131-6.637-.812-.759-.277-1.376-.566-1.784-.867-.185-.136-.632-.05-.632.123 0 .3.023.654.088 1.048.255 1.532-.049 1.302-1.562 2.83a10.338 10.338 0 0 0-2.084 3.047c-1.351.388-2.455 1.161-2.74 2.086l-.39 1.263c-.363 1.184.624 2.221 2.306 2.578.48 3.027 2.537 5.685 7.022 7.15l-.246 2.126c-.066.568-.556 1.093-1.27 1.352l-9.046 3.265c5.283 1.107 11.304 1.776 17.95 1.776 6.555 0 12.5-.65 17.73-1.727l-8.849-3.308c-.7-.263-1.18-.783-1.243-1.341l-.248-2.143c4.485-1.465 6.542-4.125 7.022-7.152" fill="#F0C41B"/><g transform="translate(72.672 70.931)"><circle fill="#26B999" cx="25.078" cy="25.034" r="25.034"/><path d="M38.786 12.89a2.083 2.083 0 0 0-2.904.522L24.208 30.185l-8.239-6.763a2.084 2.084 0 0 0-2.935.29 2.082 2.082 0 0 0 .29 2.935l9.984 8.197a2.092 2.092 0 0 0 1.609.455 2.097 2.097 0 0 0 1.427-.874l12.964-18.628a2.09 2.09 0 0 0-.522-2.906z" fill="#FFF"/></g></g></svg><svg viewBox="0 0 130 119" id="people" xmlns="http://www.w3.org/2000/svg"><g fill="none" fill-rule="evenodd"><path d="M119.643 95.695L98.308 85.028a8.136 8.136 0 0 1-4.498-7.277V69.38a31.9 31.9 0 0 0 2.019-2.596c2.908-4.105 5.106-8.624 6.631-13.365 2.736-.845 4.751-3.373 4.751-6.377v-8.935c0-1.965-.873-3.723-2.234-4.951V20.239S107.63.137 80.408.137C53.186.137 55.84 20.239 55.84 20.239v12.917c-1.36 1.228-2.234 2.986-2.234 4.951v8.935c0 2.354 1.238 4.424 3.09 5.622 2.23 9.72 8.078 16.713 8.078 16.713v8.164a8.134 8.134 0 0 1-4.241 7.143L40.606 95.552a17.921 17.921 0 0 0-9.336 15.731v7.235h98.277v-6.797c0-6.788-3.835-12.99-9.904-16.026z" fill="#8697CB"/><path d="M40.606 95.555l13.28-7.244c-.075-.073-.01-.096.146-.08l6.5-3.545a8.134 8.134 0 0 0 4.241-7.143V69.38s-2.372-2.848-4.672-7.423l-.003-.006a45.366 45.366 0 0 1-.89-1.885c-.04-.092-.081-.18-.121-.27a41.371 41.371 0 0 1-.863-2.11l-.05-.144a41.969 41.969 0 0 1-.684-2.002c-.058-.187-.116-.373-.172-.56a37.37 37.37 0 0 1-.621-2.319c-1.854-1.192-3.092-3.263-3.092-5.62v-8.934c0-1.965.874-3.723 2.234-4.951V20.54c-3.156-2.45-8.047-4.77-15.635-4.77-21.36 0-22.336 17.868-22.336 17.868v11.157c-1.174 1.06-2.233 2.577-2.233 4.275v7.717c0 2.034 1.07 3.821 2.667 4.855 1.927 8.394 8.398 14.436 8.398 14.436v7.051a7.027 7.027 0 0 1-3.663 6.17L8.063 98.685A15.473 15.473 0 0 0 0 112.268v6.248h31.27v-7.235c0-6.555 3.58-12.586 9.336-15.726z" fill="#556080"/></g></svg><svg viewBox="0 0 121 121" id="server" xmlns="http://www.w3.org/2000/svg"><g fill="none" fill-rule="evenodd"><g><path d="M111.55 38.966H7.4a7.401 7.401 0 0 1-7.4-7.4V7.4C0 3.314 3.314 0 7.4 0h104.148a7.402 7.402 0 0 1 7.401 7.4v24.165a7.402 7.402 0 0 1-7.4 7.401z" fill="#556080"/><path d="M111.55 77.932H7.4a7.401 7.401 0 0 1-7.4-7.4V46.367c0-4.086 3.314-7.4 7.4-7.4h104.148a7.402 7.402 0 0 1 7.401 7.4V70.53a7.402 7.402 0 0 1-7.4 7.401z" fill="#38454F"/><path d="M111.55 116.898H7.4a7.401 7.401 0 0 1-7.4-7.4V85.333c0-4.086 3.314-7.4 7.4-7.4h104.148a7.402 7.402 0 0 1 7.401 7.4v24.165a7.402 7.402 0 0 1-7.4 7.401z" fill="#556080"/><circle fill="#8697CB" cx="19.483" cy="19.483" r="7.178"/><circle fill="#8697CB" cx="100.492" cy="16.407" r="2.051"/><circle fill="#8697CB" cx="92.288" cy="16.407" r="2.051"/><circle fill="#8697CB" cx="104.593" cy="22.559" r="2.051"/><circle fill="#8697CB" cx="96.39" cy="22.559" r="2.051"/><circle fill="#8697CB" cx="84.085" cy="16.407" r="2.051"/><circle fill="#8697CB" cx="88.186" cy="22.559" r="2.051"/><circle fill="#8697CB" cx="75.881" cy="16.407" r="2.051"/><circle fill="#8697CB" cx="79.983" cy="22.559" r="2.051"/><circle fill="#8697CB" cx="67.678" cy="16.407" r="2.051"/><circle fill="#8697CB" cx="71.78" cy="22.559" r="2.051"/><circle fill="#8697CB" cx="19.483" cy="58.449" r="7.178"/><circle fill="#8697CB" cx="100.492" cy="55.373" r="2.051"/><circle fill="#8697CB" cx="92.288" cy="55.373" r="2.051"/><circle fill="#8697CB" cx="104.593" cy="61.525" r="2.051"/><circle fill="#8697CB" cx="96.39" cy="61.525" r="2.051"/><circle fill="#8697CB" cx="84.085" cy="55.373" r="2.051"/><circle fill="#8697CB" cx="88.186" cy="61.525" r="2.051"/><circle fill="#8697CB" cx="75.881" cy="55.373" r="2.051"/><circle fill="#8697CB" cx="79.983" cy="61.525" r="2.051"/><circle fill="#8697CB" cx="67.678" cy="55.373" r="2.051"/><circle fill="#8697CB" cx="71.78" cy="61.525" r="2.051"/><circle fill="#8697CB" cx="19.483" cy="97.415" r="7.178"/><circle fill="#8697CB" cx="100.492" cy="94.339" r="2.051"/><circle fill="#8697CB" cx="92.288" cy="94.339" r="2.051"/><circle fill="#8697CB" cx="104.593" cy="100.492" r="2.051"/><circle fill="#8697CB" cx="96.39" cy="100.492" r="2.051"/><circle fill="#8697CB" cx="84.085" cy="94.339" r="2.051"/><circle fill="#8697CB" cx="88.186" cy="100.492" r="2.051"/><circle fill="#8697CB" cx="75.881" cy="94.339" r="2.051"/><circle fill="#8697CB" cx="79.983" cy="100.492" r="2.051"/><circle fill="#8697CB" cx="67.678" cy="94.339" r="2.051"/><circle fill="#8697CB" cx="71.78" cy="100.492" r="2.051"/></g><g transform="translate(71.78 71.78)"><circle fill="#26B999" cx="24.61" cy="24.61" r="24.61"/><path d="M38.086 12.672a2.048 2.048 0 0 0-2.854.513L23.755 29.674l-8.099-6.65a2.049 2.049 0 0 0-2.885.286 2.047 2.047 0 0 0 .285 2.885l9.815 8.058a2.057 2.057 0 0 0 1.581.447 2.061 2.061 0 0 0 1.403-.859l12.744-18.312a2.055 2.055 0 0 0-.513-2.857z" fill="#FFF"/></g></g></svg></svg>