<?xml version="1.0" encoding="UTF-8"?><svg xmlns="http://www.w3.org/2000/svg" xmlns:xlink="http://www.w3.org/1999/xlink"><style>:root>svg{display:none}:root>svg:target{display:block}</style><svg viewBox="0 0 113 121" id="calendar" xmlns="http://www.w3.org/2000/svg"><g fill="none" fill-rule="evenodd"><path fill="#F05565" d="M96.227 8.345v8.345H81.591V8.345H31.409v8.345H16.773V8.345H.045v22.948h112.91V8.345z"/><path fill="#EFEBDE" d="M16.773 31.293H.045V121h112.91V31.293H31.409z"/><path d="M77.41 45.897H16.772v60.5h79.454v-60.5H77.41zm-18.82 4.172h14.637v14.603H58.591V50.07zm14.637 33.38H58.591V68.844h14.636v14.603zM39.773 68.844h14.636v14.603H39.773V68.845zm0-18.776h14.636v14.603H39.773V50.07zm-18.818 0H35.59v14.603H20.955V50.07zm0 18.776H35.59v14.603H20.955V68.845zm14.636 33.38H20.955V87.62H35.59v14.603zm18.818 0H39.773V87.62h14.636v14.603zm18.818 0H58.591V87.62h14.636v14.603zm18.818 0H77.41V87.62h14.636v14.603zm0-18.777H77.41V68.845h14.636v14.603zM77.41 64.672V50.07h14.636v14.603H77.41z" fill="#D5D0BB" fill-rule="nonzero"/><path fill="#36495E" d="M16.773 0h14.636v16.69H16.773zM81.591 0h14.636v16.69H81.591z"/><path fill="#7F6E5D" d="M39.773 68.845h14.636v14.603H39.773z"/></g></svg><svg viewBox="0 0 115 121" id="file" xmlns="http://www.w3.org/2000/svg"><g fill="none" fill-rule="evenodd"><path fill="#EFEBDE" d="M93.922 29.207L64.716 0H.043v121h93.88z"/><g fill="#D5D0BB"><path d="M20.905 47.983H73.06a2.086 2.086 0 1 0 0-4.173H20.905a2.086 2.086 0 1 0 0 4.173zM20.905 31.293h20.862a2.086 2.086 0 1 0 0-4.172H20.905a2.086 2.086 0 1 0 0 4.172zM73.06 60.5H20.905a2.086 2.086 0 1 0 0 4.172H73.06a2.086 2.086 0 1 0 0-4.172zM73.06 77.19H20.905a2.086 2.086 0 1 0 0 4.172H73.06a2.086 2.086 0 1 0 0-4.172zM73.06 93.88H20.905a2.086 2.086 0 1 0 0 4.172H73.06a2.086 2.086 0 1 0 0-4.173z"/></g><path fill="#D5D0BB" d="M64.716 0v29.207h29.206z"/><g transform="translate(64.672 70.931)"><circle fill="#26B999" cx="25.078" cy="25.034" r="25.034"/><path d="M36.454 20.44l-1.978-1.966c-.27-.27-.6-.405-.988-.405a1.35 1.35 0 0 0-.989.405l-9.536 9.5-4.274-4.266a1.35 1.35 0 0 0-.989-.405 1.35 1.35 0 0 0-.988.405l-1.977 1.967c-.272.27-.407.597-.407.983 0 .385.135.714.407.983l5.262 5.235 1.977 1.966c.272.27.601.405.989.405.387 0 .717-.135.988-.405l1.977-1.966 10.526-10.47c.27-.269.407-.597.407-.982 0-.386-.136-.714-.407-.984z" fill="#FFF"/></g></g></svg><svg viewBox="0 0 520 333" id="m1" xmlns="http://www.w3.org/2000/svg"><g fill="#D8232A" fill-rule="evenodd"><path d="M0 333h90V181H0zM232 333h90V181h-90zM321 64.537L257.448 1 160.5 97.926 63.552 1 0 64.537 160.5 225zM385 0v89.92h44.656V332H520V0z"/></g></svg><svg viewBox="0 0 963 616" id="m1-white" xmlns="http://www.w3.org/2000/svg"><g fill="#FBFBFB" fill-rule="evenodd"><path d="M0 616h166V333H0zM430 616h166V333H430zM596 118.28L478.004 0 298 180.438 117.996 0 0 118.28 298 417zM714 0v166.839h82.366V616H963V0z"/></g></svg><svg viewBox="0 0 121 121" id="mace" xmlns="http://www.w3.org/2000/svg"><g fill="none" fill-rule="evenodd"><path d="M93.98 67.321l25.6 33.973c2.347 3.115 1.72 7.583-1.396 9.93-3.113 2.346-7.582 1.719-9.928-1.396L82.655 75.855l1.396-9.929 9.928 1.395z" fill="#B35F49"/><path d="M82.655 75.855l1.396-9.929 34.134 45.298c-3.114 2.346-7.583 1.719-9.93-1.396l-25.6-33.973z" fill="#804231"/><path fill="#C6715A" d="M69.852 58.868l11.323-8.534 12.8 16.986-11.324 8.534z"/><path fill="#99503D" d="M69.85 58.868l5.663-4.267 12.8 16.986-5.662 4.267z"/><path d="M84.143 13.035l12.374 16.421c.35 10.478-6.428 23.042-16.733 30.808-10.305 7.765-24.252 10.817-34.227 7.593l-12.374-16.42c-.35-10.478 6.428-23.043 16.733-30.81 10.305-7.764 24.251-10.816 34.227-7.592z" fill="#FFDA44"/><path d="M49.916 20.629l29.868 39.635c-10.305 7.765-24.252 10.817-34.227 7.593l-12.374-16.42c-.35-10.478 6.428-23.043 16.733-30.808z" fill="#EEBF00"/><path d="M105.264 41.064a7.09 7.09 0 0 1-9.93-1.396L74.001 11.357a7.09 7.09 0 1 1 11.325-8.533l21.333 28.31a7.09 7.09 0 0 1-1.395 9.93z" fill="#99503D"/><path d="M55.635 76.513a7.09 7.09 0 0 1-9.93-1.396L24.372 46.806a7.09 7.09 0 1 1 11.325-8.533l21.333 28.31a7.09 7.09 0 0 1-1.395 9.93z" fill="#804231"/><path d="M63.809 102.85v7.515a3.51 3.51 0 0 1-3.545 3.545h-49.63a3.51 3.51 0 0 1-3.544-3.545v-7.515c0-5.672 4.537-10.21 10.209-10.21h36.3c5.672 0 10.21 4.538 10.21 10.21z" fill="#99503D"/><path d="M63.809 102.85v7.515a3.51 3.51 0 0 1-3.545 3.545H35.449V92.64H53.6c5.672 0 10.21 4.538 10.21 10.21z" fill="#804231"/><path d="M63.809 106.82H7.089C3.19 106.82 0 110.01 0 113.91v3.545A3.51 3.51 0 0 0 3.545 121h63.809a3.51 3.51 0 0 0 3.544-3.545v-3.545c0-3.9-3.19-7.09-7.09-7.09z" fill="#B35F49"/><path d="M70.898 113.91v3.545A3.51 3.51 0 0 1 67.354 121H35.449v-14.18h28.36c3.899 0 7.09 3.19 7.09 7.09z" fill="#99503D"/></g></svg><svg viewBox="0 0 124 122" id="money" xmlns="http://www.w3.org/2000/svg"><g fill="none" fill-rule="evenodd"><path d="M106.65 59.907v2.54c0 14.216-23.874 25.74-53.322 25.74-16.255 0-30.801-3.516-40.582-9.053 3.298 12.808 25.71 23.408 52.887 23.408 29.448 0 53.322-12.444 53.322-26.66 0-6.252-4.626-11.76-12.305-15.975" fill="#FCC62D"/><path d="M65.633 102.542c-29.448 0-53.322-12.444-53.322-26.66v17.325c0 14.216 23.874 25.742 53.322 25.742 29.448 0 53.322-11.526 53.322-25.742V75.88c0 14.217-23.874 26.661-53.322 26.661" fill="#E4AF18"/><path d="M18.464 105.309a33.335 33.335 0 0 0 4.101 3.169V91.474a34.08 34.08 0 0 1-4.101-3.288v17.123zM108.701 91.474v17.004a33.136 33.136 0 0 0 4.102-3.169V88.186a33.76 33.76 0 0 1-4.102 3.288M26.667 110.869a55.898 55.898 0 0 0 4.102 1.905V95.971a56.079 56.079 0 0 1-4.102-2v16.898zM100.498 112.772a55.06 55.06 0 0 0 4.101-1.905V93.97a55.257 55.257 0 0 1-4.101 2v16.802zM34.87 114.324c1.325.454 2.693.876 4.102 1.27v-16.64a75.097 75.097 0 0 1-4.101-1.346v16.716zM92.294 115.594a75.245 75.245 0 0 0 4.102-1.27V97.608a75.097 75.097 0 0 1-4.102 1.345v16.641zM45.125 117.07c1.339.271 2.709.513 4.101.729v-16.497a90.309 90.309 0 0 1-4.101-.778v16.547zM82.04 117.799a96.737 96.737 0 0 0 4.102-.728v-16.549c-1.34.287-2.71.546-4.102.78v16.497zM57.43 118.742c1.35.1 2.72.17 4.102.22v-16.413a98.433 98.433 0 0 1-4.102-.236v16.429zM69.735 118.964c1.382-.052 2.752-.12 4.102-.22v-16.431c-1.35.108-2.72.182-4.102.238v16.413z" fill="#CE9912"/><path d="M53.328 71.765C23.88 71.765.006 59.321.006 45.105V62.43c0 14.216 23.874 25.742 53.322 25.742 29.448 0 53.322-11.526 53.322-25.742V45.104c0 14.217-23.874 26.661-53.322 26.661" fill="#E4AF18"/><path d="M6.159 74.532A33.335 33.335 0 0 0 10.26 77.7V60.697A34.272 34.272 0 0 1 6.16 57.41v17.12zM96.396 60.697V77.7a33.136 33.136 0 0 0 4.102-3.168V57.409a33.76 33.76 0 0 1-4.102 3.288M14.362 80.092a55.898 55.898 0 0 0 4.102 1.905V65.194a56.079 56.079 0 0 1-4.102-2v16.898zM88.193 81.995a54.246 54.246 0 0 0 4.101-1.905V63.193a55.257 55.257 0 0 1-4.101 2v16.802zM22.565 83.547c1.325.454 2.693.876 4.102 1.27v-16.64a75.096 75.096 0 0 1-4.102-1.346v16.716zM79.99 84.817a75.244 75.244 0 0 0 4.1-1.27V66.831a75.096 75.096 0 0 1-4.1 1.345v16.64zM32.82 86.294c1.339.27 2.709.512 4.101.728V70.525a90.309 90.309 0 0 1-4.101-.778v16.547zM69.735 87.024a96.737 96.737 0 0 0 4.102-.728V69.747c-1.34.287-2.71.546-4.102.78v16.497zM45.125 87.967c1.35.1 2.72.17 4.101.22V71.773a98.433 98.433 0 0 1-4.101-.236v16.429zM57.43 88.186c1.382-.05 2.752-.119 4.102-.219V71.536c-1.35.108-2.72.182-4.102.238v16.412z" fill="#CE9912"/><path d="M105.25 68.297c-5.49 11.395-26.643 19.89-51.922 19.89-9.442 0-18.306-1.19-25.998-3.268 7.44 5.052 20.682 9.35 38.303 9.35 28.06 0 45.119-10.892 45.119-18.388 0-2.502-1.926-5.155-5.503-7.584M63.582 67.678c-29.448 0-53.322-11.526-53.322-25.742V30.344C3.82 34.382.006 39.446.006 45.12c0 14.216 23.874 26.66 53.322 26.66 14.18 0 27.055-2.889 36.606-7.469-7.775 2.14-16.764 3.368-26.352 3.368" fill="#FFD949"/><path d="M63.582 51.257c-29.448 0-53.322-12.445-53.322-26.661V41.92c0 14.217 23.874 25.743 53.322 25.743 29.449 0 53.322-11.526 53.322-25.743V24.596c0 14.216-23.873 26.66-53.322 26.66" fill="#E4AF18"/><path d="M16.413 54.023a33.335 33.335 0 0 0 4.102 3.169V40.188a34.272 34.272 0 0 1-4.102-3.285v17.12zM106.65 40.188v17.004a33.136 33.136 0 0 0 4.102-3.169V36.901a33.76 33.76 0 0 1-4.102 3.287M24.616 59.583a55.898 55.898 0 0 0 4.102 1.906V44.686a56.08 56.08 0 0 1-4.102-2v16.897zM98.447 61.486a54.246 54.246 0 0 0 4.102-1.905V42.684a55.257 55.257 0 0 1-4.102 2v16.802zM32.82 63.039c1.325.453 2.692.876 4.101 1.27V47.667a75.097 75.097 0 0 1-4.101-1.346V63.04zM90.243 64.308a75.244 75.244 0 0 0 4.102-1.27V46.323a75.097 75.097 0 0 1-4.102 1.346v16.64zM43.074 65.785c1.34.27 2.71.513 4.102.728V50.016a90.309 90.309 0 0 1-4.102-.777v16.546zM79.99 66.515a96.737 96.737 0 0 0 4.1-.728V49.24c-1.338.287-2.708.545-4.1.78v16.496zM55.379 67.459c1.35.1 2.72.17 4.102.219V51.265a98.433 98.433 0 0 1-4.102-.236v16.43zM67.684 67.678c1.382-.051 2.752-.119 4.102-.22v-16.43c-1.35.108-2.72.182-4.102.237v16.413z" fill="#CE9912"/><path d="M116.904 24.61c0 14.217-23.873 26.661-53.322 26.661-29.448 0-53.322-12.444-53.322-26.66C10.26 10.393 34.134 0 63.582 0c29.449 0 53.322 10.394 53.322 24.61" fill="#FCC62D"/><path d="M63.582 42.998c-28.06 0-45.118-10.89-45.118-18.388 0-7.496 17.059-18.457 45.118-18.457 28.06 0 45.12 10.961 45.12 18.457 0 7.498-17.06 18.388-45.12 18.388" fill="#FFD949"/><path d="M77.49 27.397c1.68-.357 2.667-1.394 2.304-2.578l-.39-1.263c-.284-.929-1.394-1.704-2.754-2.09-1.85-3.952-6.566-5.383-13.572-5.383-.332 0-.656.008-.976.02-2.392.099-4.777-.131-6.637-.812-.759-.277-1.376-.566-1.784-.867-.185-.136-.632-.05-.632.123 0 .3.023.654.088 1.048.255 1.532-.049 1.302-1.562 2.83a10.338 10.338 0 0 0-2.084 3.047c-1.351.388-2.455 1.161-2.74 2.086l-.39 1.263c-.363 1.184.624 2.221 2.306 2.578.48 3.027 2.537 5.685 7.022 7.15l-.246 2.126c-.066.568-.556 1.093-1.27 1.352l-9.046 3.265c5.283 1.107 11.304 1.776 17.95 1.776 6.555 0 12.5-.65 17.73-1.727l-8.849-3.308c-.7-.263-1.18-.783-1.243-1.341l-.248-2.143c4.485-1.465 6.542-4.125 7.022-7.152" fill="#F0C41B"/><g transform="translate(73 71)"><circle fill="#26B999" cx="25.078" cy="25.034" r="25.034"/><path d="M36.454 20.44l-1.978-1.966c-.27-.27-.6-.405-.988-.405a1.35 1.35 0 0 0-.989.405l-9.536 9.5-4.274-4.266a1.35 1.35 0 0 0-.989-.405 1.35 1.35 0 0 0-.988.405l-1.977 1.967c-.272.27-.407.597-.407.983 0 .385.135.714.407.983l5.262 5.235 1.977 1.966c.272.27.601.405.989.405.387 0 .717-.135.988-.405l1.977-1.966 10.526-10.47c.27-.269.407-.597.407-.982 0-.386-.136-.714-.407-.984z" fill="#FFF"/></g></g></svg><svg viewBox="0 0 130 119" id="people" xmlns="http://www.w3.org/2000/svg"><g fill="none" fill-rule="evenodd"><path d="M119.643 95.695L98.308 85.028a8.136 8.136 0 0 1-4.498-7.277V69.38a31.9 31.9 0 0 0 2.019-2.596c2.908-4.105 5.106-8.624 6.631-13.365 2.736-.845 4.751-3.373 4.751-6.377v-8.935c0-1.965-.873-3.723-2.234-4.951V20.239S107.63.137 80.408.137C53.186.137 55.84 20.239 55.84 20.239v12.917c-1.36 1.228-2.234 2.986-2.234 4.951v8.935c0 2.354 1.238 4.424 3.09 5.622 2.23 9.72 8.078 16.713 8.078 16.713v8.164a8.134 8.134 0 0 1-4.241 7.143L40.606 95.552a17.921 17.921 0 0 0-9.336 15.731v7.235h98.277v-6.797c0-6.788-3.835-12.99-9.904-16.026z" fill="#8697CB"/><path d="M40.606 95.555l13.28-7.244c-.075-.073-.01-.096.146-.08l6.5-3.545a8.134 8.134 0 0 0 4.241-7.143V69.38s-2.372-2.848-4.672-7.423l-.003-.006a45.366 45.366 0 0 1-.89-1.885c-.04-.092-.081-.18-.121-.27a41.371 41.371 0 0 1-.863-2.11l-.05-.144a41.969 41.969 0 0 1-.684-2.002c-.058-.187-.116-.373-.172-.56a37.37 37.37 0 0 1-.621-2.319c-1.854-1.192-3.092-3.263-3.092-5.62v-8.934c0-1.965.874-3.723 2.234-4.951V20.54c-3.156-2.45-8.047-4.77-15.635-4.77-21.36 0-22.336 17.868-22.336 17.868v11.157c-1.174 1.06-2.233 2.577-2.233 4.275v7.717c0 2.034 1.07 3.821 2.667 4.855 1.927 8.394 8.398 14.436 8.398 14.436v7.051a7.027 7.027 0 0 1-3.663 6.17L8.063 98.685A15.473 15.473 0 0 0 0 112.268v6.248h31.27v-7.235c0-6.555 3.58-12.586 9.336-15.726z" fill="#556080"/></g></svg><svg viewBox="0 0 122 122" id="server" xmlns="http://www.w3.org/2000/svg"><g fill="none" fill-rule="evenodd"><g><path d="M111.55 38.966H7.4a7.401 7.401 0 0 1-7.4-7.4V7.4C0 3.314 3.314 0 7.4 0h104.148a7.402 7.402 0 0 1 7.401 7.4v24.165a7.402 7.402 0 0 1-7.4 7.401z" fill="#556080"/><path d="M111.55 77.932H7.4a7.401 7.401 0 0 1-7.4-7.4V46.367c0-4.086 3.314-7.4 7.4-7.4h104.148a7.402 7.402 0 0 1 7.401 7.4V70.53a7.402 7.402 0 0 1-7.4 7.401z" fill="#38454F"/><path d="M111.55 116.898H7.4a7.401 7.401 0 0 1-7.4-7.4V85.333c0-4.086 3.314-7.4 7.4-7.4h104.148a7.402 7.402 0 0 1 7.401 7.4v24.165a7.402 7.402 0 0 1-7.4 7.401z" fill="#556080"/><circle fill="#8697CB" cx="19.483" cy="19.483" r="7.178"/><circle fill="#8697CB" cx="100.492" cy="16.407" r="2.051"/><circle fill="#8697CB" cx="92.288" cy="16.407" r="2.051"/><circle fill="#8697CB" cx="104.593" cy="22.559" r="2.051"/><circle fill="#8697CB" cx="96.39" cy="22.559" r="2.051"/><circle fill="#8697CB" cx="84.085" cy="16.407" r="2.051"/><circle fill="#8697CB" cx="88.186" cy="22.559" r="2.051"/><circle fill="#8697CB" cx="75.881" cy="16.407" r="2.051"/><circle fill="#8697CB" cx="79.983" cy="22.559" r="2.051"/><circle fill="#8697CB" cx="67.678" cy="16.407" r="2.051"/><circle fill="#8697CB" cx="71.78" cy="22.559" r="2.051"/><circle fill="#8697CB" cx="19.483" cy="58.449" r="7.178"/><circle fill="#8697CB" cx="100.492" cy="55.373" r="2.051"/><circle fill="#8697CB" cx="92.288" cy="55.373" r="2.051"/><circle fill="#8697CB" cx="104.593" cy="61.525" r="2.051"/><circle fill="#8697CB" cx="96.39" cy="61.525" r="2.051"/><circle fill="#8697CB" cx="84.085" cy="55.373" r="2.051"/><circle fill="#8697CB" cx="88.186" cy="61.525" r="2.051"/><circle fill="#8697CB" cx="75.881" cy="55.373" r="2.051"/><circle fill="#8697CB" cx="79.983" cy="61.525" r="2.051"/><circle fill="#8697CB" cx="67.678" cy="55.373" r="2.051"/><circle fill="#8697CB" cx="71.78" cy="61.525" r="2.051"/><circle fill="#8697CB" cx="19.483" cy="97.415" r="7.178"/><circle fill="#8697CB" cx="100.492" cy="94.339" r="2.051"/><circle fill="#8697CB" cx="92.288" cy="94.339" r="2.051"/><circle fill="#8697CB" cx="104.593" cy="100.492" r="2.051"/><circle fill="#8697CB" cx="96.39" cy="100.492" r="2.051"/><circle fill="#8697CB" cx="84.085" cy="94.339" r="2.051"/><circle fill="#8697CB" cx="88.186" cy="100.492" r="2.051"/><circle fill="#8697CB" cx="75.881" cy="94.339" r="2.051"/><circle fill="#8697CB" cx="79.983" cy="100.492" r="2.051"/><circle fill="#8697CB" cx="67.678" cy="94.339" r="2.051"/><circle fill="#8697CB" cx="71.78" cy="100.492" r="2.051"/></g><g transform="translate(71 71)"><circle fill="#26B999" cx="25.078" cy="25.034" r="25.034"/><path d="M36.454 20.44l-1.978-1.966c-.27-.27-.6-.405-.988-.405a1.35 1.35 0 0 0-.989.405l-9.536 9.5-4.274-4.266a1.35 1.35 0 0 0-.989-.405 1.35 1.35 0 0 0-.988.405l-1.977 1.967c-.272.27-.407.597-.407.983 0 .385.135.714.407.983l5.262 5.235 1.977 1.966c.272.27.601.405.989.405.387 0 .717-.135.988-.405l1.977-1.966 10.526-10.47c.27-.269.407-.597.407-.982 0-.386-.136-.714-.407-.984z" fill="#FFF"/></g></g></svg><svg viewBox="0 0 278 74" id="tinkoff" xmlns="http://www.w3.org/2000/svg"><g fill="none" fill-rule="evenodd"><path d="M123.941 42.253c.339-.531.684-1.055 1.047-1.576h.212v11.772h5.347V32.464H125.2l-5.987 9.114a68.109 68.109 0 0 1-1.008 1.509 43.856 43.856 0 0 0-1.004 1.555h-.211V32.464h-5.346v19.985h5.346a117.4 117.4 0 0 0 2.951-4.27 294.553 294.553 0 0 1 2.911-4.315c.391-.541.756-1.082 1.089-1.611M140.939 44.152h7.955v8.297h5.348V32.463h-5.348v7.604h-7.955v-7.604h-5.347v19.986h5.347v-8.297M170.182 47.872c-.531.382-1.229.573-2.092.573h-3.452v-4.906h3.408c.894 0 1.605.207 2.136.613.527.41.791 1.024.791 1.841 0 .871-.264 1.498-.791 1.879m6.141-1.836c0-2.048-.712-3.634-2.125-4.767-1.421-1.127-3.322-1.696-5.706-1.696h-3.854v-7.11h-5.349V52.45h9.437c2.306 0 4.148-.514 5.526-1.532 1.382-1.025 2.071-2.65 2.071-4.882M239.661 48.445c-.655.3-1.343.475-2.065.53V36.059c1.753.138 3.104.797 4.051 1.982.947 1.188 1.423 2.653 1.423 4.394 0 1.039-.155 1.952-.464 2.74-.304.791-.709 1.457-1.211 2.002-.5.544-1.079.969-1.734 1.268zm-7.085.492a6.46 6.46 0 0 1-2.143-.532 5.354 5.354 0 0 1-1.771-1.271c-.504-.544-.903-1.204-1.198-1.981-.297-.775-.444-1.679-.444-2.718 0-1.741.486-3.206 1.454-4.394.968-1.185 2.336-1.844 4.102-1.982v12.878zm12.542.893c.94-.893 1.678-1.969 2.227-3.225.542-1.254.818-2.685.818-4.295 0-1.495-.267-2.859-.799-4.083a9.473 9.473 0 0 0-2.201-3.168c-.937-.885-2.055-1.579-3.354-2.084-1.3-.504-2.706-.795-4.213-.88v-7.517l-5.02 1.923v5.594c-1.486.085-2.882.388-4.188.92-1.305.535-2.436 1.242-3.391 2.127a9.702 9.702 0 0 0-2.25 3.146c-.547 1.212-.82 2.556-.82 4.022 0 1.61.253 3.047.758 4.316a9.27 9.27 0 0 0 2.168 3.267c.94.915 2.062 1.625 3.366 2.129 1.31.501 2.759.794 4.357.875v8.467l5.061-1.923v-6.583a12.96 12.96 0 0 0 4.151-.898 10.243 10.243 0 0 0 3.33-2.13zM271.652 45.175c-.307.791-.712 1.457-1.211 2.002a5.426 5.426 0 0 1-1.734 1.268c-.657.3-1.346.476-2.069.53V36.059c1.752.137 3.104.798 4.053 1.981.947 1.189 1.418 2.654 1.418 4.396 0 1.038-.148 1.95-.457 2.739zm-10.028 3.761a6.47 6.47 0 0 1-2.148-.532 5.342 5.342 0 0 1-1.767-1.27c-.508-.542-.905-1.205-1.201-1.983-.295-.774-.441-1.677-.441-2.715 0-1.742.483-3.207 1.451-4.396.97-1.183 2.338-1.844 4.106-1.981v12.877zm14.765-2.33c.546-1.256.818-2.685.818-4.296 0-1.495-.265-2.86-.797-4.084a9.472 9.472 0 0 0-2.202-3.167c-.936-.884-2.056-1.579-3.355-2.084-1.301-.505-2.707-.795-4.215-.879v-7.518l-5.014 1.922v5.596c-1.488.084-2.884.387-4.191.921-1.304.533-2.434 1.239-3.388 2.126a9.67 9.67 0 0 0-2.252 3.144c-.547 1.214-.82 2.556-.82 4.023 0 1.611.249 3.048.76 4.315a9.243 9.243 0 0 0 2.166 3.269c.94.915 2.062 1.624 3.369 2.128 1.302.5 2.756.793 4.356.876v8.465l5.056-1.92v-6.584a13.056 13.056 0 0 0 4.152-.898 10.318 10.318 0 0 0 3.332-2.13 9.745 9.745 0 0 0 2.225-3.225zM89.978 28.621h7.785v23.851h5.559V28.621h7.524v-4.653H89.978v4.653M198.574 32.568h-6.097l-7.164 8.493v-8.598h-5.304v20.009h5.304v-9.731l6.995 9.731h6.306l-7.867-10.707 7.827-9.197M213.471 44.909a6.65 6.65 0 0 1-.843 1.944c-.37.558-.827.994-1.377 1.306-.55.314-1.174.47-1.883.47-1.437 0-2.536-.541-3.3-1.612-.762-1.075-1.143-2.596-1.143-4.561 0-1.741.371-3.187 1.1-4.33.738-1.144 1.806-1.719 3.215-1.719 1.495 0 2.623.57 3.386 1.699.764 1.131 1.141 2.609 1.141 4.436 0 .843-.098 1.631-.296 2.367m2.933-10.013a8.507 8.507 0 0 0-3.087-2.065c-1.204-.477-2.517-.715-3.949-.715-1.427 0-2.743.238-3.947.715a8.912 8.912 0 0 0-3.112 2.043c-.865.887-1.538 1.98-2.015 3.272-.474 1.292-.714 2.758-.714 4.396 0 1.578.232 3.009.693 4.29.46 1.281 1.114 2.369 1.954 3.27a8.667 8.667 0 0 0 3.048 2.087c1.189.487 2.525.731 4.011.731 1.424 0 2.743-.239 3.95-.714a8.771 8.771 0 0 0 3.108-2.063c.868-.902 1.548-1.998 2.034-3.29.493-1.293.739-2.762.739-4.397 0-1.578-.24-3.011-.717-4.289-.474-1.28-1.14-2.37-1.996-3.271" fill="#000"/><path d="M20.004 57.357l-.9 1.527c-.32-1.006-.903-2.05-1.277-2.788-.721 1.486-1.861 1.516-2.959 1.523.242-3.56-4.229-7.141-2.264-11.203.392-.812.138-1.807-.708-2.233-3.001-1.524-1.612 4.798-4.609 4.988.573-.718.79-2.218.876-2.349-.637.167-2.166 1.137-2.852-.106 1.753-.954 2.257-2.389 2.531-3.829.349-1.824.51-2.668.865-3.418.368-.801.961-1.494 2.226-3.137-.3.046-3.674.756-4.43.402 5.832-3.583 4.518-8.138 13.415-12.199-2.332-1.732-4.719-3.113-3.008-6.424 2.438 2.927 7.069 1.914 9.57.554-2.471-.495-5.656-2.671-6.413-5.095.932-.144 2.138.867 2.834 1.337.334-.894.466-1.935 1.55-2.161-1.445 3.097 1.413 4.707 4.137 4.72.422 0 2.185-.175 2.185-.175-.281-.581-1.42-2.163-.591-2.803.665.625 1.46 1.124 2.185 1.68 5.298 4.1-2.52 7.902-5.717 9.627-5.019 2.712-3.677 5.937-1.579 6.763-.009.366-.235.527-.582.639-1.467.491-2.843-.555-4.013-1.226.072 2.024-.066 3.969 2.169 5.083l-1.542.564c1.327 1.005 1.729 1.54 3.326 1.748-.746.361-1.671.355-2.462.429.2.561.365 1.319.784 1.821-3.268.388-4.575-1.477-5.585-1.4-2.155.16-2.022 4.217 3.283 4.223l-.55.907s1.006.587 1.925.7c-.352.285-.694.67-.989.964l.846.729c-2.164.389-2.777-1.915-4.181-.803-2.142 1.697 2.58 5.28 7.109 4.745-.382.487-1.444 1.203-1.905 1.576 3.692 3.486 1.871 6.768 3.389 9.171-3.181-.211-5.538-2.546-6.089-5.071m4.149-3.92c1.023-.814 1.87-1.22 1.83-3.183-1.537.784-5.9.742-7.721-1.767-.516-.71.034-1.07.533-.508 1.246 1.414 3.556.771 4.4.363-.134-.484-.508-1.118-.823-1.389.315-.311 1.206-.772 1.39-1.568-.478-.259-2.329-.444-2.329-.444.299-.284.668-.685.447-1.744-1.889.58-4.224-.207-4.756-.908-.521-.687.012-1.332.449-.879.941.99 5.585 2.124 7.312.403-.642-.176-1.349-.75-1.478-1.104 1.598-.16 2.874-1.103 2.978-2.28-.884 0-2.553-.064-3.121-.491.767-.285 1.25-.562 1.492-1.419-2.923-.177-3.155-2.348-3.17-2.708 1.903 1.097 5.254.612 4.388-2.093-1.581-.084-3.179-2.647 1.176-5.004 3.957-2.141 8.461-4.45 8.064-8.254-.26-2.432-4.267-4.094-4.775-5.325-1.673.797-2.011 1.721-1.257 3.268 0 0-3.724.372-4.018-1.922-.129-1.03.559-1.992 1.295-2.726-.417 0-3.224-.751-4.071 1.536-1.576-1.074-2.92-1.035-3.98.098 1.691 1.006 2.74 4.449 5.537 5.467-1.991 1.079-5.208.625-7.085-2.688-1.777 2.677-2.799 5.326 1.01 8.156-6.934 3.157-6.883 9.186-12.914 12.06.614 1.642 1.903 1.642 3.546 1.386-2.609 3.389-.386 6.933-4.512 8.382.384 1.382 1.159 2.483 2.683 2.081-.433.675-.719.66-1.393 1.403 2.256 1.422 4.933.391 5.539-4.166.109-.813 1.23-.305.84.493-2.572 5.318 3.932 9.318 1.631 13.221 2.031-.085 3.574-.242 4.424-.929.413.818.659 1.63.571 2.429 1.121-.228 1.529-.893 1.606-1.649.736 2.139 3.36 4.428 7.564 4.428-2.23-3.173-.155-6.395-3.302-10.026" fill="#D0D5D6"/><path d="M14.185 44.638c.765.799 1.695.881 3.456.769-1.935-.233-3.021-.704-3.695-1.989a18.7 18.7 0 0 1-.195-2.13c-.059-2.036.61-4.462 2.018-7.117-.01 1.666 1.312 4.284 4.258 4.722-2.65-1.16-4.205-3.768-3.359-6.289a38.682 38.682 0 0 1 1.87-2.717c.351-.447.689-.876 1.022-1.278-.356 1.289 1.202 2.618 2.243 2.84-.566-.55-1.776-2.341 1.022-5.335-.783.369-1.646.891-2.299 1.404 5.085-5.496 9.264-5.649 11.184-8.413-2.782 1.901-10.145 2.927-13.452 2.029 1.825 1.221 6.226 1.109 7.301.882-3.588 3.489-11.423 7.092-12.779 10.298 1.91-2.094 3.143-2.478 4.795-3.018-1.302 1.942-2.474 3.65-3.282 5.632-2.084 4.527-4.872 4.584-5.054 8.319.95-2.894 2.879-3.627 4.218-5.528-.238 1.214-.346 2.557-.305 4.113.048 1.689.385 3.173.923 4.5-.137 1.847.028 4.998 2.145 7.079-1.438-1.82-1.747-4.778-1.62-5.931 1.657 3.196 6.382 7.61 8.664 10.578-2.282-3.816-7.88-8.275-9.079-13.42M66.466 29.296c1.645.542 2.885.924 4.793 3.018-1.355-3.206-9.196-6.81-12.785-10.299 1.081.226 5.48.34 7.306-.881-3.306.898-10.671-.128-13.455-2.029 1.924 2.764 6.099 2.919 11.186 8.413a12.687 12.687 0 0 0-2.299-1.404c2.796 2.994 1.588 4.782 1.02 5.335 1.043-.222 2.6-1.55 2.245-2.84.334.402.676.831 1.022 1.278a36.697 36.697 0 0 1 1.868 2.717c.848 2.521-.711 5.129-3.354 6.289 2.946-.436 4.268-3.056 4.253-4.722 1.408 2.655 2.082 5.081 2.018 7.117a18.731 18.731 0 0 1-.191 2.13c-.678 1.285-1.763 1.758-3.693 1.989 1.759.112 2.683.03 3.457-.769-1.203 5.145-6.8 9.602-9.085 13.42 2.285-2.968 7.004-7.382 8.664-10.578.129 1.153-.181 4.111-1.614 5.931 2.112-2.081 2.277-5.232 2.142-7.08.534-1.328.868-2.81.919-4.499.05-1.556-.067-2.899-.303-4.113 1.338 1.901 3.267 2.634 4.22 5.528-.181-3.735-2.969-3.792-5.058-8.319-.805-1.982-1.974-3.69-3.276-5.632" fill="#D0D5D6"/><path d="M75.882 46.822c.081.131.293 1.631.868 2.35-3.001-.191-1.608-6.513-4.609-4.989-.847.426-1.099 1.421-.706 2.233 1.963 4.062-2.509 7.643-2.258 11.203-1.106-.007-2.254-.037-2.97-1.523-.37.738-.956 1.782-1.274 2.788l-.899-1.527c-.555 2.525-2.911 4.861-6.088 5.071 1.509-2.403-.303-5.685 3.386-9.171-.462-.37-1.521-1.089-1.904-1.576 4.532.535 9.254-3.048 7.107-4.745-1.4-1.112-2.018 1.192-4.178.803l.847-.729c-.295-.296-.642-.678-.991-.964.923-.113 1.925-.7 1.925-.7l-.549-.907c5.305-.006 5.431-4.063 3.285-4.223-1.008-.077-2.321 1.79-5.586 1.402.413-.504.582-1.264.784-1.823-.786-.074-1.72-.068-2.463-.429 1.597-.21 1.998-.743 3.324-1.748l-1.537-.564c2.233-1.114 2.096-3.061 2.163-5.083-1.165.673-2.547 1.717-4.007 1.226-.348-.112-.576-.273-.584-.639 2.097-.826 3.432-4.051-1.579-6.763-3.197-1.725-11.017-5.527-5.717-9.628.723-.555 1.513-1.054 2.18-1.679.832.64-.304 2.222-.589 2.803 0 0 1.761.177 2.18.177 2.732-.015 5.594-1.626 4.146-4.722 1.084.226 1.212 1.267 1.543 2.161.696-.47 1.904-1.481 2.839-1.337-.758 2.424-3.938 4.6-6.413 5.095 2.498 1.36 7.131 2.373 9.567-.554 1.711 3.311-.671 4.692-3.008 6.425 8.897 4.06 7.586 8.614 13.421 12.198-.755.354-4.137-.358-4.439-.402 1.273 1.643 1.867 2.336 2.235 3.137.354.75.51 1.592.859 3.418.279 1.44.782 2.875 2.531 3.827-.685 1.245-2.212.275-2.842.108m-.347-9.052c1.642.255 2.933.255 3.545-1.388-6.031-2.872-5.981-8.901-12.914-12.058 3.811-2.83 2.783-5.479 1.014-8.157-1.876 3.314-5.104 3.768-7.084 2.689 2.793-1.018 3.845-4.461 5.535-5.467-1.058-1.133-2.411-1.172-3.981-.098-.854-2.289-3.654-1.536-4.074-1.536.732.733 1.427 1.696 1.296 2.726-.289 2.294-4.016 1.923-4.016 1.923.75-1.548.418-2.472-1.255-3.269-.512 1.233-4.515 2.893-4.772 5.324-.401 3.805 4.102 6.114 8.059 8.255 4.355 2.357 2.757 4.92 1.18 5.004-.875 2.705 2.479 3.19 4.383 2.093-.009.36-.25 2.531-3.173 2.708.247.857.728 1.134 1.496 1.42-.573.426-2.239.49-3.124.49.107 1.177 1.383 2.118 2.981 2.277-.127.355-.836.931-1.478 1.107 1.728 1.721 6.368.587 7.313-.403.432-.453.962.192.448.878-.534.702-2.868 1.489-4.757.909-.217 1.059.148 1.46.444 1.744 0 0-1.85.185-2.328.444.18.796 1.078 1.257 1.392 1.568-.314.271-.688.905-.821 1.389.846.408 3.157 1.049 4.395-.363.505-.562 1.053-.204.541.508-1.826 2.509-6.185 2.549-7.726 1.767-.043 1.963.805 2.369 1.83 3.185-3.149 3.629-1.069 6.851-3.299 10.024 4.198 0 6.825-2.289 7.562-4.428.082.756.484 1.421 1.604 1.649-.086-.799.163-1.611.569-2.429.853.687 2.402.844 4.425.929-2.298-3.903 4.207-7.903 1.629-13.221-.383-.8.737-1.306.845-.493.603 4.557 3.283 5.588 5.541 4.166-.682-.743-.96-.728-1.394-1.403 1.52.402 2.295-.699 2.686-2.081-4.128-1.449-1.908-4.995-4.517-8.382M33.548 54.365l1.24-.941c.22-.168.361-.273.615-.241l1.747.228c.094.421.374.831.374.831l-1.858-.392c-.263-.031-.34-.018-.589.159l-.879.665c-.174.139-.178.353-.08.564l.143.308-.617.465-.233-.442c-.239-.474-.255-.904.137-1.204m2.838-3.284l-.324.171c-.221.129-.336.187-.528-.057l-.142-.174c-.068-.084-.092-.293.052-.45l1.383-1.614-1.276-1.046 1.625.599.594-.741c.174.15.113.578.113.578.658 0 2.57.949 2.643 3.328 0 0 .43.639.982.673l2.814.17c.465 0 1.632-.889 3.133-.048.378-.231.784-.411 1.202-.457 1.32-.099 2.293.822 3.018 1.748.528.671 1.253 1.699 1.253 1.699-.31.369-.619.494-.876.401-.392-.198-.517-.514-.64-.949-.198-.691-.958-1.282-.958-1.282.257.465.311.99.435 1.474-1.099-1.088-1.309-2.42-2.077-2.601-.341-.085-.735.059-1.105.486.389.9.37 1.944.766 2.64.302.523.365.569.501.684.326.233.14.65.091.956l-.418 2.614h-.7l.462-2.559c.141-.778-2.047-.778-3.167-2.263-.956 1.113-3.632.834-4.789.66-.468-.068-.922-.04-1.181.421-.149.26-.403.182-.555.143l-2.111-.456c-.371-.086-.532-.011-.697.329l-.423.875c-.094.204-.089.354.079.517l.202.215c-.121.422-.503.74-.503.74l-.461-.519c-.223-.261-.235-.643-.057-1.014l.684-1.425c.08-.155.224-.328.514-.328l2.612-.043-.8-1.303c-.597-.978.392-2.72.245-3.542-.074 1.104-1.407.599-1.615.75m10.873 6.024l-1.128 2.778h-.701l1.126-2.691c.118-.346-.104-.509-.384-.891a8.16 8.16 0 0 0 1.225.586c-.046.076-.098.121-.138.218m-13.748-.316l1.268-1.075-.193-.388c-.138-.273-.064-.294.083-.401l.667-.499c.156-.128.318-.112.511-.066l2.008.471h-2.119c-.494.033-.636.222-.81.583l-.147.3-.547 1.12c-.185.386-.281.899.205 1.483l.387.456-.782 1.583h.659l.54-1.101c.043-.039.842-.765 1.01-1.522-.229-.185-.394-.317-.266-.581l.245-.523c.079-.176.107-.247.34-.199l2.112.457c.263.07.649.186.93-.237.291-.443.33-.394 1-.326l1.077.114c1.471.138 2.941-.231 3.514-.684.199.457.597.808.784 1.163.068.131-.044.318-.137.55l-1.209 2.889h1.865l1.056-2.64c.098-.249.239-.451.35-.55l-.606 3.19h1.808l.481-3.16c.106-.698.043-.926-.292-1.213-.756-.636-.739-1.974-.982-2.787a.72.72 0 0 1 .454-.09c.395.04.691 1.046 1.156 1.691.924 1.302 2.192 2.739 3.641.715a4.727 4.727 0 0 0-.47-.642l-.404-.472c-.235-.263-1.358-1.544-1.823-2.008-1.063-1.067-2.693-.906-3.341-.388-1.473-.769-3.024.04-3.392.011l-2.533-.153a.501.501 0 0 1-.413-.245l.469-.154c-.441-1.834-1.549-3.371-3.485-3.633 0 0-.113-.581-.407-.692l-.577.682a1.896 1.896 0 0 0-.488.135l-2.47-.918 1.856 1.873s-.963 1.363-1.236 1.64c-.181.254-.164.454.038.699l.361.473c.187.242.389.234.687.082l.406-.211c.174-.148.773.144 1.025-.09a7.52 7.52 0 0 0-.282 1.454l-1.663-.2c-.366-.048-.529 0-.753.174l-1.419 1.093c-.465.357-.609.971-.321 1.569l.574 1.198M38.929 20.837c.677.468 1.876.968 1.876.968v-.797l-2.638-1.011s0 .323.762.84M40.805 19.874v-.79l-2.995-1.071s.357.381 1.119.901c.677.467 1.876.96 1.876.96M40.805 18.072v-.8l-3.278-1.206s.64.519 1.402 1.038c.677.467 1.876.968 1.876.968" fill="#D0D5D6"/><path d="M50.013 28.933h3.354c-.142-.486-.663-.976-1.64-.976-.927 0-1.481.533-1.714.976M46.506 16.066l-3.272 1.206v.8s1.199-.499 1.872-.968c.764-.519 1.4-1.038 1.4-1.038M45.87 19.997l-2.636 1.011v.797s1.196-.5 1.874-.968c.762-.517.762-.84.762-.84M46.225 18.013l-2.991 1.071v.79s1.199-.493 1.874-.96c.762-.52 1.117-.901 1.117-.901M32.302 27.957c-.976 0-1.499.49-1.636.976h3.354c-.237-.443-.787-.976-1.718-.976" fill="#D0D5D6"/><path d="M42.018 15.671l-5.384-2.127c.456-1.083 2.568-2.006 5.384-2.006 2.817 0 4.926.923 5.382 2.006l-5.382 2.127zm4.009 6.646l-3.631 1.909v-7.71l4.931-1.676-1.3 7.477zm4.244 3.216c-1.362.237-2.529 1.903-3.489 3.4l-.108.175h-1.022l-.002.175c-.108 1.158-1.206 2.731-3.633 2.731-1.121 0-1.965-.343-2.546-.811a2.99 2.99 0 0 1-.973-1.396 2.49 2.49 0 0 1-.11-.524l-.007-.175h-1.016l-.11-.175c-.964-1.497-2.133-3.163-3.488-3.4l3.704-2.147 4.547 2.472 4.544-2.472 3.709 2.147zm4.993 5.67c-.387 1.013-.702 2.108-.702 3.203v11.781h-1.369c-.621-.602-1.147-2.613-1.147-2.613-.34.727.049 2.188.414 2.613h-1.764c-.437-.59-.816-2.683-.816-2.683-.527.602-.193 2.232.134 2.683h-1.17c-.076-.836.163-1.748.163-1.748-.611-.114-1.264-.437-1.261-1.12.309.292.434.288.864.281l.5-.394c-1.655.052-1.729-1.76-.422-2.61-1.307.042-2.288-.736-1.808-2.128-.934-.482-1.263-2.058-.574-2.75-.499-.542-.582-1.601-.262-2.327-.66 0-1.403-.265-1.817-.715-.031.016-.068.025-.104.037.826-.337 1.523-.859 1.996-1.51h9.145zm-.699 23.4c0 2.458-1.135 4.322-3.021 5.359l.677-1.377h-.655l-.867 1.762c-.899.342-1.921.527-3.05.527-3.446 0-4.356.141-5.628 1.411-1.28-1.27-2.189-1.411-5.628-1.411-1.122 0-2.138-.184-3.037-.518h.025l.867-1.771h-.654l-.762 1.548a7.193 7.193 0 0 1-.529-.279l.628-1.269h-.649l-.466.946c-1.477-1.088-2.344-2.784-2.344-4.928v-7.724h25.093v7.724zM37.484 40.496l1.059.131c.078.581-.073 1.565-.452 2.111l-1.023-.297c.272-.651.341-1.252.416-1.945zm-1.523-.775s.97-.047 1.245.056c.203.085.065.424-.194.388-.277-.034-1.051-.444-1.051-.444zm-.065-3.856l-.87 3.183.297-5.132 1.351-1.155.688 1.509-1.738 4.982.457-3.354c.045-.235-.147-.26-.185-.033zm-.67 5.303c-.458.186-.924-.064-.78-.361.211.194.804.099.804.099l-.024.262zm-.857.425c.209.205.848.128.848.128l.025.126c-.279.371-1.051.205-.873-.254zm-1.002-2.047c-.244-.163-.134-.519.136-.519.296.008.691.343 1.083.511 0 0-1.024.137-1.219.008zm.969 2.817s.294.127.664.155c-.043.202-.197.4-.45.343-.208-.045-.302-.306-.214-.498zm.688-1.92c-.491.159-.709-.195-.685-.496.961-.353 1.389-.127 1.673.055.26.163.472.625.823.916-.06.394-.181.966-.322 1.349-.984-.254-1.036-1.119-.666-1.65-.208-.241-.426-.301-.823-.174zm4.267.283l1.055.124c.103.583-.094 1.809-.492 2.397l-1.073-.31c.429-.565.586-1.566.51-2.211zm1.812.22l.871.111c.137.719.047 1.969-.413 2.682l-1.013-.296c.444-.601.651-1.841.555-2.497zm1.558.194h.02a1.28 1.28 0 0 0 .68-.094c.469.675.837 2.201.274 3.156a3.37 3.37 0 0 1-.926-.133l-.233-.07c.475-.741.404-2.042.185-2.859zm1.329-.513l.614-.602c.632.545 1.454 1.773 1.196 2.936l-.671.613a2.363 2.363 0 0 1-.427.326c.418-1.042-.117-2.638-.712-3.273zm3.618.347c-.136.177-.247.39-.317.617l-.748.689c.15-1.095-.585-2.392-1.258-2.919l.799-.782.156.159c-.266.7.254 2.069 1.368 2.236zm-1.991-5.302c-.393.752-.353 1.619.109 2.405l-.308.302c-1.342-.165-1.873-2.169-1.873-2.169a3.407 3.407 0 0 0-.04.533c-.783-.29-1.28-.985-1.24-1.94.297.167.631.282.986.347l.091-.588c-.939-.164-1.487-.751-1.698-1.443a2.716 2.716 0 0 1-.125-.021c.165.015.331.028.502.028a5.62 5.62 0 0 0 1.581-.231c.389.555 1.081.952 1.776 1.031-.11.455-.056 1.033.239 1.746zm-7.701-4.469c.648.887 1.699 1.543 2.944 1.802.107.468.358.978.854 1.393-.205 1.377.386 2.663 1.868 3.006.155.7.592 1.232 1.321 1.484l-1.031 1.189c-.392.458-.906.606-1.332.55l-4.603-.522c.197-.513-.332-1.106-1.787-.852l1.809-5.056-1.105-2.349-2.091 1.785-.155 5.307-.887-.438c-1.171-.502-1.512 1.609-.401 1.617l.44.005c-.027.22.039.456.21.53-.21.089-.271.483-.008.621-.269.126-.3.526-.088.701-.233.387-.267 1.236.539 1.448.657.176 1.073-.537 1.211-.95l7.16 2.218c1.016.291 1.736.129 2.578-.612l1.868-1.634c-.233 1.069.151 2.033.963 2.351 0 0-.117.956-.079 1.39H29.472V34.406c0-1.095-.316-2.19-.695-3.203h9.139zM36.707 14.84l4.927 1.676v7.71l-3.629-1.909-1.298-7.477zm11.97-.918c0-1.886-3.168-3.575-6.66-3.575-3.497 0-6.665 1.689-6.665 3.575l.075.459 1.39 8.01-6.604 3.849c-.704.414-1.585 1.551-1.696 2.693h1.204c.199-1.141 1.104-2.408 2.792-2.333 1.525.083 2.425 1.012 3.322 2.333l.232.35.333.524h-9.715c.712 1.431 1.393 2.951 1.393 4.599v20.197c0 5.196 3.993 7.669 8.315 7.669 3.337 0 3.787-.151 5.628 1.69 1.836-1.841 2.284-1.69 5.628-1.69 4.321 0 8.314-2.473 8.314-7.669V34.406c0-1.648.674-3.168 1.387-4.599h-9.718l.337-.524.232-.35c.891-1.321 1.795-2.25 3.321-2.333 1.679-.075 2.589 1.192 2.786 2.333h1.205c-.109-1.142-.994-2.279-1.693-2.693l-6.604-3.849 1.393-8.01.068-.459z" fill="#D0D5D6"/><path d="M53.995 38.817l.007-.591c-1.809-.042-2.228-2.183-2.228-2.183-.527 1.575.856 2.747 2.221 2.774M51.706 42.435l-.184-.56c-1.544.395-2.34-2.053-2.34-2.053-.497 1.78 1.228 3.039 2.524 2.613M52.778 40.165c-1.845.293-2.603-1.855-2.603-1.855-.204 1.169.553 2.354 1.773 2.481-.275 1.526 1.144 2.308 2.371 1.764l-.177-.53c-1.066.353-2.066-.7-1.364-1.86M51.673 34.035l.015-.59c-2.436-.504-2.23-2.18-2.23-2.18-.527 1.579.855 2.745 2.215 2.77M36.235 58.585l-.875 1.771h.658l.871-1.771h-.654M37.549 58.585l-.87 1.771h.661l.864-1.771h-.655M42.825 58.585l-.867 1.771h.652l.871-1.771h-.656M44.15 58.585l-.878 1.771h.659l.868-1.771h-.649M41.509 58.585l-.875 1.771h.658l.872-1.771h-.655M49.214 60.356h.654l.873-1.771h-.657l-.87 1.771M38.869 58.585l-.868 1.771h.656l.871-1.771h-.659M40.185 58.585l-.87 1.771h.661l.869-1.771h-.66M37.201 49.074c-.12 0-.224.12-.224.271 0 .145.104.265.224.265.127 0 .23-.12.23-.265 0-.151-.103-.271-.23-.271M36.935 8.189l1.036-2.202 1.926 1.023 2.123-2.096 2.125 2.096 1.923-1.023 1.029 2.202 1.276-.198a10.07 10.07 0 0 0-.802 1.905c-1.396-.816-3.473-1.444-5.551-1.444-2.083 0-4.153.628-5.552 1.444a9.947 9.947 0 0 0-.807-1.905l1.274.198zm5.086.964c2.704 0 4.869.896 6.065 1.86 0 0 .358-2.148 1.569-4.033l-2.178.245-1.139-2.424-2.193 1.14-2.124-2.11-2.124 2.11-2.196-1.14-1.141 2.424-2.176-.245c1.213 1.885 1.567 4.033 1.567 4.033 1.194-.964 3.363-1.86 6.07-1.86z" fill="#D0D5D6"/><path d="M44.243 4.815a.579.579 0 0 0 .624-.528c.031-.313-.43-1.159-.43-1.159s-.693.744-.715 1.064a.58.58 0 0 0 .521.623M47.813 6.109a.574.574 0 0 0 .778-.243c.151-.275.053-1.231.053-1.231s-.922.412-1.072.694a.586.586 0 0 0 .241.78M39.79 4.815a.577.577 0 0 0 .526-.623c-.028-.32-.713-1.064-.713-1.064s-.46.846-.43 1.159a.575.575 0 0 0 .617.528M36.224 6.109a.576.576 0 0 0 .238-.78c-.149-.282-1.07-.694-1.07-.694s-.095.956.059 1.231a.568.568 0 0 0 .773.243M75.718 26.16c.235.523.7 2.341-.415 3.727-1.269-2.538-3.016-4.712-4.427-5.65-.311-.2.169-.556 1.038-.67 2.634-.498 5.72.618 7.186 1.006-.683.515-1.24.742-1.936.83 1.067.894 1.843 1.651 2.396 2.494-1.038.257-1.616-.397-3.842-1.737m3.318-.43c.762-.271 1.349-.998 1.642-1.667-1.935-.281-7.076-2.438-11.3-.68 1.582-1.504 3.002-1.696 3.136-3.858.658.472 1.767.738 2.391-.387-.434-1.29-1.538-.245-1.69-.601-.217-.49 1.388.155 1.732-1.517-1.247-.43-1.62.588-1.842.353-.207-.226.792-.654.056-2.003-1.299.76-.622 1.616-.895 1.71-.335.134-.073-.913-1.506-.864-.142 1.54 1.35 1.591 1.102 1.836-.293.3-.682-.887-1.766-.285.019 1.244 1.025 1.925 2.067 1.633-.168 2.367-2.336 1.925-3.954 4.588 3.421 1.754 4.969 4.816 7.075 6.928.696-.49 1.885-2.686 1.885-2.686 2.279 1.765 3.882.006 3.882.006-.785-.801-.814-1.412-2.015-2.506M48.768 69.062l-1.16-3.777c2.47-.509 4.192-1.035 5.505-1.543v2.356l2.037.821a33.366 33.366 0 0 1-6.382 2.143m-6.747 2.205c-2.308 0-4.555-.345-6.482-.817l1.226-3.956c.812.188 2.841.437 5.256.437 2.416 0 4.437-.249 5.256-.437l1.227 3.956c-1.933.472-4.185.817-6.483.817m-13.139-4.348l2.044-.821v-2.356c1.312.508 3.034 1.034 5.504 1.543l-1.156 3.777a33.824 33.824 0 0 1-6.392-2.143m24.861-1.312V62.72c-2.232 1.022-5.07 1.852-8.723 2.182l-.166 1.031c.312.043.702.082 1.23.114a34.302 34.302 0 0 1-4.063.278c-.961 0-2.706-.09-4.062-.278.523-.032.913-.071 1.225-.114l-.165-1.031c-3.653-.33-6.498-1.16-8.724-2.182v2.887l-3.028 1.243c2.242 1.167 4.823 2.118 7.803 2.886l-.35 1.21c1.709.499 4.438 1.008 7.301 1.008 2.861 0 5.591-.509 7.298-1.008l-.354-1.21c2.982-.768 5.566-1.719 7.807-2.886l-3.029-1.243M4.476 27.897c.553-.843 1.324-1.6 2.399-2.492-.702-.09-1.253-.317-1.941-.832 1.469-.388 4.561-1.504 7.192-1.006.865.114 1.353.47 1.037.67-1.416.938-3.162 3.112-4.434 5.648-1.11-1.384-.643-3.202-.408-3.725-2.224 1.34-2.805 1.994-3.845 1.737m2.392.333s1.19 2.196 1.883 2.686c2.108-2.112 3.658-5.174 7.076-6.928-1.617-2.663-3.79-2.217-3.947-4.587 1.035.291 2.043-.393 2.064-1.634-1.089-.596-1.475.588-1.769.285-.244-.25 1.246-.296 1.104-1.835-1.437-.044-1.171.997-1.51.863-.268-.097.406-.952-.897-1.71-.732 1.356.269 1.776.061 2.003-.219.235-.597-.783-1.84-.353.336 1.672 1.946 1.027 1.728 1.517-.152.356-1.253-.687-1.685.602.618 1.124 1.731.858 2.384.388.137 2.168 1.555 2.346 3.141 3.856-4.224-1.758-9.366.397-11.306.682.296.667.884 1.394 1.643 1.659-1.196 1.104-1.224 1.712-2.011 2.512 0 0 1.601 1.759 3.881-.006M40.166 26.62v1.272c.441-.528 1.286-.425 1.286-.425v1.83s-.028.903-.347 1.294h1.833c-.32-.391-.349-1.294-.349-1.294v-1.83s.845-.103 1.283.425V26.62h-3.706" fill="#D0D5D6"/><path d="M82.147 27.167c-.221-.228-.355-.436-.539-.725a15.21 15.21 0 0 0-.318-.475c.32-.371.592-.799.797-1.269l.819-1.865-2.016-.29c-.341-.051-.889-.194-1.527-.362-1.237-.323-2.822-.739-4.553-.921.592-.26 1.092-.727 1.442-1.358l.331-.597s-.087-.837-.413-1.101c.125-.258.219-.545.285-.856l.272-1.336-1.287-.441a3.481 3.481 0 0 0-.599-.151 4.071 4.071 0 0 0-.328-.775l-.765-1.403-1.38.808a3.698 3.698 0 0 0-.867.689 3.551 3.551 0 0 0-.658-.057s-.786-.088-1.658.226l-1.112-1.152-1.316-1.406c-1.23-1.318-2.898-1.707-4.6-1.06-.649-.647-1.663-1.185-3.234-1.185-.532 0-.998.064-1.276.101 0 0-2.164.394-3.379 1.549l-1.476-.702c-.989 1.556-2.681 2.051-2.681 2.051a3.705 3.705 0 0 0-.595-1.269l.097-.549c0-.016.331-1.875 1.344-3.449l1.761-2.74-2.495.28a6.972 6.972 0 0 0-.04-.887l-.222-2.132-1.955.882a8.48 8.48 0 0 0-.566.284l-.386-.824-.896.465a7.205 7.205 0 0 0-.362-.759L44.763.516l-1.464 1.579c-.15.163-.277.311-.388.456l-.888-.884-.894.888a6.799 6.799 0 0 0-.385-.454L39.277.507l-1.036 1.901c-.157.289-.27.536-.361.757l-.892-.463-.388.822c-.17-.091-.352-.186-.567-.286l-1.962-.882-.217 2.14a6.854 6.854 0 0 0-.039.881l-2.498-.28 1.766 2.741c1.015 1.573 1.34 3.429 1.341 3.443l.092.55a3.706 3.706 0 0 0-.596 1.273s-1.596-.683-2.666-2.053l-1.506.718c-1.718-1.161-2.783-1.612-4.635-1.664-1.572-.043-2.585.538-3.233 1.184-1.703-.644-3.367-.254-4.594 1.061 0 0-.806.876-1.317 1.406-.511.532-1.263.972-1.263.972s-1.069-.241-2.169.012a3.724 3.724 0 0 0-.876-.693l-1.383-.805-.76 1.41a3.888 3.888 0 0 0-.322.768 3.505 3.505 0 0 0-.599.151l-1.279.441.267 1.328c.064.319.158.606.285.866a3.249 3.249 0 0 0-.194.453l-.217.645.33.596c.348.632.847 1.1 1.439 1.36-1.732.182-3.317.598-4.557.923-.636.168-1.187.311-1.527.362l-2.025.292.461 1.042.369.828c.209.465.481.893.8 1.262-.119.169-.631.968-.856 1.197L.872 28.208l.981 1.083c.122.132 1.223 1.286 3.004 1.288.486 0 .969-.085 1.448-.254.475.742 1.037 1.495 1.554 1.864-.947 1.113-2.025 2.077-3.558 2.807l-1.282.611.55 1.464c.36.882 1.056 1.854 2.408 2.225-.29.863-.429 1.685-.551 2.413-.29 1.734-.412 2.452-1.939 2.988l-1.37.48.392 1.397c.317 1.14.79 1.894 1.305 2.389l-.91 1.003s2.162 1.62 4.282 1.817c.03.005 1.839.119 2.65-.915.325 1.173.839 2.254 1.304 3.236.958 2.014 1.467 3.208.826 4.296l-1.447 2.455 2.848-.119c1.243-.052 2.398-.126 3.396-.375 0 .055-.003.106-.009.157l-.233 2.108 2.495-.525a3.83 3.83 0 0 0 .734-.303c1.547 1.806 4.17 3.217 7.708 3.217h.206l-4.067 1.67 2.96 1.542c1.951 1.014 4.118 1.865 6.588 2.586l-.344 1.183 1.486.436c.859.252 3.959 1.073 7.734 1.073 3.776 0 6.873-.822 7.733-1.073l1.484-.436-.345-1.182c2.475-.722 4.642-1.573 6.592-2.587l2.962-1.542-4.07-1.67h.205c3.535 0 6.16-1.411 7.705-3.217.224.118.471.224.732.303l2.494.525-.229-2.105a1.998 1.998 0 0 1-.007-.158c.996.247 2.153.321 3.395.373l2.844.119-1.441-2.454c-.644-1.089-.133-2.282.823-4.295.467-.981.98-2.064 1.305-3.238.55.419 1.138.669 1.726.8 0 0 .457.137.894.149 1.26.037 1.886-.32 2.752-.865l1.57-.988-.92-1.004c.516-.495.987-1.248 1.307-2.381l.396-1.402-1.375-.48c-1.528-.536-1.648-1.254-1.94-2.987-.123-.729-.258-1.551-.55-2.414 1.35-.372 2.046-1.344 2.405-2.225l.548-1.465-1.28-.61c-1.535-.73-2.612-1.694-3.559-2.807.519-.372 1.081-1.122 1.558-1.864.476.169.958.252 1.447.254 1.781 0 2.884-1.154 3.003-1.286l.983-1.082-1.021-1.044" fill="#FFFFFE"/><path d="M42.021 62.288c-1.279-1.271-2.189-1.411-5.633-1.411-4.115 0-6.912-2.412-6.912-6.269v-7.721h25.088v7.721c0 3.857-2.791 6.269-6.915 6.269-3.446 0-4.356.14-5.628 1.411M29.476 46.194V34.417c0-1.097-.316-2.192-.696-3.202h9.137c.84 1.151 2.361 1.923 4.104 1.923 1.738 0 3.259-.772 4.1-1.923h9.139c-.388 1.01-.7 2.105-.7 3.202v11.777H29.476" fill="#FFE52B"/><path d="M30.929 63.745v2.353l-2.041.821a33.606 33.606 0 0 0 6.387 2.141l1.158-3.772c-2.471-.511-4.192-1.038-5.504-1.543M42.021 66.931c-2.413 0-4.444-.249-5.255-.438l-1.224 3.957c1.924.472 4.174.817 6.479.817 2.298 0 4.549-.345 6.481-.817l-1.228-3.957c-.816.189-2.837.438-5.253.438M53.11 63.745c-1.312.505-3.032 1.032-5.504 1.543l1.162 3.772a33.343 33.343 0 0 0 6.381-2.141l-2.039-.821v-2.353M22.832 26.126c-2.799 2.993-1.588 4.782-1.022 5.335-1.042-.224-2.597-1.552-2.244-2.838-.331.398-.67.828-1.02 1.275a38.09 38.09 0 0 0-1.869 2.715c-.848 2.523.709 5.129 3.356 6.286-2.944-.433-4.265-3.051-4.256-4.718-1.407 2.656-2.076 5.08-2.015 7.116.026.756.091 1.465.191 2.13.676 1.283 1.762 1.755 3.694 1.987-1.759.111-2.687.031-3.453-.77 1.198 5.145 6.794 9.601 9.073 13.417-2.279-2.966-7.003-7.381-8.657-10.575-.128 1.153.179 4.111 1.617 5.93-2.115-2.079-2.28-5.233-2.143-7.078a12.807 12.807 0 0 1-.921-4.499c-.044-1.554.067-2.897.303-4.109-1.337 1.899-3.266 2.632-4.217 5.523.184-3.73 2.971-3.789 5.053-8.314.808-1.982 1.98-3.69 3.28-5.631-1.651.541-2.885.925-4.792 3.016 1.354-3.205 9.187-6.807 12.774-10.295-1.075.228-5.475.339-7.301-.88 3.31.897 10.671-.128 13.452-2.03-1.921 2.762-6.098 2.918-11.183 8.409a13.121 13.121 0 0 1 2.3-1.402m3.822-.318c3.198-1.726 11.012-5.526 5.715-9.623-.723-.556-1.516-1.057-2.184-1.68-.828.639.31 2.221.594 2.8 0 0-1.763.178-2.186.178-2.725-.012-5.582-1.625-4.136-4.719-1.084.224-1.217 1.265-1.549 2.16-.695-.472-1.903-1.482-2.834-1.339.757 2.421 3.942 4.602 6.412 5.097-2.499 1.36-7.129 2.372-9.567-.556-1.711 3.308.673 4.693 3.007 6.426-8.892 4.056-7.58 8.608-13.413 12.191.757.355 4.131-.358 4.431-.401-1.267 1.642-1.859 2.337-2.228 3.134-.354.75-.514 1.595-.865 3.418-.275 1.441-.776 2.876-2.528 3.829.687 1.242 2.212.272 2.849.105-.086.131-.3 1.63-.873 2.351 2.996-.193 1.609-6.511 4.607-4.989.845.425 1.099 1.42.709 2.233-1.968 4.061 2.505 7.641 2.262 11.199 1.099-.009 2.238-.037 2.959-1.523.372.741.955 1.782 1.277 2.788l.897-1.526c.551 2.524 2.907 4.859 6.088 5.067-1.518-2.401.301-5.682-3.386-9.168.459-.369 1.521-1.086 1.901-1.572-4.526.531-9.247-3.049-7.104-4.748 1.402-1.11 2.014 1.194 4.178.806l-.845-.73c.297-.293.636-.678.988-.964-.918-.111-1.924-.7-1.924-.7l.548-.906c-5.301-.005-5.436-4.061-3.282-4.222 1.013-.074 2.32 1.789 5.583 1.401-.417-.503-.584-1.261-.781-1.823.789-.073 1.715-.066 2.459-.428-1.593-.207-1.997-.74-3.322-1.746l1.542-.564c-2.236-1.114-2.099-3.058-2.169-5.083 1.169.673 2.545 1.715 4.01 1.23.35-.117.574-.277.581-.641-2.096-.825-3.437-4.051 1.579-6.762M70.573 37.73c.234 1.212.353 2.557.303 4.109-.051 1.688-.386 3.172-.921 4.499.136 1.845-.028 4.999-2.142 7.078 1.433-1.821 1.743-4.777 1.617-5.93-1.662 3.194-6.379 7.609-8.662 10.575 2.283-3.816 7.88-8.274 9.08-13.417-.772.801-1.695.881-3.455.772 1.931-.234 3.014-.706 3.691-1.989.101-.665.166-1.374.193-2.131.064-2.035-.611-4.459-2.017-7.115.013 1.667-1.307 4.285-4.254 4.719 2.642-1.158 4.202-3.764 3.354-6.287a36.484 36.484 0 0 0-1.868-2.715 46.23 46.23 0 0 0-1.021-1.275c.354 1.286-1.202 2.614-2.245 2.838.568-.553 1.775-2.342-1.02-5.335.784.37 1.649.893 2.301 1.402-5.086-5.491-9.258-5.646-11.186-8.409 2.785 1.902 10.148 2.928 13.452 2.03-1.823 1.219-6.225 1.108-7.302.88 3.586 3.488 11.426 7.09 12.777 10.293-1.905-2.089-3.146-2.473-4.788-3.013 1.3 1.941 2.469 3.648 3.273 5.628 2.089 4.527 4.876 4.584 5.058 8.318-.951-2.895-2.88-3.626-4.218-5.525m5.611 5.164c-.35-1.825-.507-2.668-.86-3.416-.366-.799-.96-1.494-2.233-3.136.302.043 3.682.756 4.436.401-5.833-3.583-4.521-8.135-13.416-12.191 2.337-1.733 4.718-3.116 3.009-6.428-2.437 2.93-7.069 1.918-9.566.558 2.474-.495 5.654-2.674 6.412-5.097-.936-.143-2.142.867-2.837 1.337-.331-.893-.461-1.935-1.545-2.161 1.449 3.097-1.412 4.71-4.144 4.722-.417 0-2.179-.178-2.179-.178.282-.579 1.419-2.161.588-2.8-.667.623-1.456 1.124-2.18 1.68-5.3 4.097 2.522 7.898 5.717 9.623 5.008 2.711 3.674 5.935 1.579 6.762.006.364.233.524.582.641 1.459.485 2.84-.557 4.005-1.23-.067 2.023.072 3.969-2.164 5.083l1.538.564c-1.326 1.006-1.726 1.539-3.32 1.746.74.362 1.674.355 2.46.429-.202.559-.373 1.319-.784 1.822 3.266.388 4.578-1.475 5.585-1.401 2.146.161 2.02 4.217-3.284 4.222l.549.908s-1.002.587-1.925.698c.351.286.695.67.991.964l-.847.73c2.16.388 2.778-1.916 4.179-.806 2.143 1.699-2.578 5.279-7.106 4.748.381.485 1.442 1.203 1.904 1.574-3.69 3.484-1.877 6.765-3.387 9.169 3.175-.211 5.53-2.546 6.089-5.07l.895 1.526c.321-1.006.909-2.047 1.276-2.788.716 1.486 1.863 1.516 2.966 1.523-.249-3.558 4.222-7.138 2.26-11.199-.393-.813-.14-1.808.705-2.233 3.003-1.522 1.609 4.796 4.609 4.989-.574-.721-.789-2.22-.869-2.351.633.167 2.155 1.14 2.842-.106-1.747-.952-2.251-2.389-2.53-3.828" fill="#FFFFFE"/><path d="M46.119 31.215c-.839 1.151-2.361 1.923-4.098 1.923-.404 0-.796-.044-1.164-.117.102.475.347.964.854 1.387-.206 1.377.389 2.666 1.867 3.005.159.701.591 1.233 1.324 1.484l-1.03 1.19c-.397.456-.915.602-1.332.549l-4.602-.525c.2-.51-.333-1.101-1.79-.847l1.806-5.06-1.1-2.346-2.089 1.786-.154 5.305-.898-.438c-1.159-.504-1.501 1.608-.397 1.617l.444.005c-.03.217.04.457.212.534-.208.083-.271.478-.01.615-.263.126-.3.528-.088.701-.227.391-.27 1.235.535 1.449.664.174 1.08-.538 1.215-.951l7.161 2.217c1.007.291 1.735.128 2.576-.61l1.868-1.634c-.235 1.069.149 2.033.961 2.35 0 0-.129.979-.079 1.386l2.505.004h3.944V34.418c0-1.097.312-2.193.7-3.203h-9.141M35.395 51.029l.14.175c.194.24.308.183.53.055l.325-.172c.204-.153 1.537.354 1.612-.753.147.827-.836 2.567-.245 3.539l.799 1.311-2.611.037c-.286 0-.435.172-.514.33l-.683 1.417c-.177.372-.165.762.059 1.019l.462.521s.379-.322.5-.741l-.204-.211c-.17-.163-.17-.316-.076-.519l.42-.873c.164-.344.327-.416.698-.33l2.111.456c.156.037.405.113.556-.145.257-.459.716-.489 1.179-.419 1.159.174 3.833.452 4.789-.662 1.12 1.486 3.309 1.486 3.165 2.264l-.462 2.557h.696l.424-2.613c.048-.304.235-.723-.094-.956-.133-.106-.196-.158-.5-.682-.398-.697-.377-1.739-.762-2.637.364-.429.757-.575 1.102-.496.771.189.98 1.52 2.077 2.607-.125-.483-.177-1.013-.437-1.472 0 0 .76.59.957 1.28.124.434.252.749.641.949.258.094.566-.031.875-.401 0 0-.723-1.027-1.252-1.699-.725-.924-1.695-1.849-3.017-1.742-.416.036-.818.224-1.2.452-1.501-.841-2.667.049-3.131.049l-2.811-.168c-.554-.035-.989-.676-.989-.676-.071-2.378-1.981-3.326-2.641-3.326 0 0 .063-.429-.111-.577l-.588.736-1.63-.594 1.277 1.045-1.385 1.612c-.142.159-.12.367-.051.453" fill="#FFFFFE"/><path d="M33.551 54.369c-.392.305-.376.73-.139 1.203l.237.441.613-.468-.138-.302c-.1-.213-.097-.427.077-.564l.879-.664c.247-.18.324-.199.589-.16l1.858.39s-.281-.41-.376-.828l-1.75-.229c-.248-.034-.396.074-.613.237l-1.237.944M45.43 59.885h.701l1.126-2.777c.04-.096.094-.14.137-.219a8.182 8.182 0 0 1-1.224-.584c.282.379.504.542.386.891l-1.126 2.689M43.234 21.023l2.633-1.01s0 .321-.759.837c-.676.467-1.874.967-1.874.967v-.794zm0-1.926l2.991-1.068s-.358.379-1.117.901c-.676.463-1.874.962-1.874.962v-.795zm0-1.809l3.272-1.206s-.639.519-1.398 1.038c-.676.468-1.874.966-1.874.966v-.798zm2.792 5.044l1.3-7.476-4.927 1.673v7.712l3.627-1.909z" fill="#FFFFFE"/><path d="M37.257 28.946l.11.173h1.014l.01.177c.014.169.051.345.107.521.158.484.47.989.973 1.398.583.469 1.425.81 2.546.81 2.427 0 3.525-1.571 3.63-2.729l.006-.177h1.019l.109-.173c.958-1.499 2.127-3.163 3.487-3.399l-3.706-2.149-4.544 2.471-4.546-2.471-3.702 2.149c1.355.236 2.524 1.9 3.487 3.399" fill="#FFFFFE"/><path d="M40.805 19.097v.795s-1.197-.497-1.872-.962c-.765-.524-1.12-.901-1.12-.901l2.992 1.068zm0-1.809v.798s-1.197-.498-1.872-.966c-.765-.521-1.405-1.038-1.405-1.038l3.277 1.206zm0 4.53s-1.197-.501-1.872-.966c-.765-.516-.765-.839-.765-.839l2.637 1.01v.795zm.829 2.423v-7.712l-4.923-1.675 1.296 7.478 3.627 1.909zM42.02 11.556c-2.816 0-4.927.923-5.384 2.004l5.384 2.127 5.38-2.127c-.458-1.081-2.565-2.004-5.38-2.004M42.021 8.47c2.075 0 4.152.628 5.55 1.443a9.631 9.631 0 0 1 .802-1.902l-1.276.196-1.029-2.201-1.926 1.023-2.121-2.097-2.124 2.097-1.923-1.023-1.039 2.201-1.272-.196a9.88 9.88 0 0 1 .806 1.902c1.401-.815 3.47-1.443 5.552-1.443M77.154 25.417c.696-.089 1.255-.319 1.937-.83-1.47-.391-4.552-1.505-7.183-1.006-.871.114-1.352.469-1.041.669 1.412.938 3.159 3.111 4.427 5.648 1.115-1.385.648-3.205.414-3.726 2.225 1.341 2.806 1.993 3.84 1.737-.55-.842-1.327-1.602-2.394-2.492M8.741 29.898c1.27-2.537 3.017-4.71 4.432-5.648.315-.2-.172-.555-1.036-.669-2.634-.499-5.722.615-7.193 1.006.69.511 1.241.741 1.942.83-1.071.892-1.847 1.65-2.396 2.492 1.038.256 1.617-.396 3.839-1.739-.23.525-.699 2.343.412 3.728" fill="#FFFFFE"/><path d="M20.01 57.361l-.897 1.526c-.322-1.006-.905-2.047-1.277-2.788-.721 1.486-1.86 1.516-2.959 1.523.243-3.558-4.23-7.138-2.262-11.199.392-.813.136-1.808-.709-2.233-2.998-1.522-1.611 4.796-4.607 4.989.573-.721.787-2.22.873-2.351-.637.167-2.162 1.14-2.849-.105 1.752-.953 2.253-2.388 2.53-3.829.349-1.823.509-2.668.863-3.416.369-.799.961-1.494 2.228-3.136-.3.043-3.674.756-4.432.401 5.834-3.583 4.521-8.135 13.414-12.191-2.332-1.733-4.716-3.116-3.007-6.426 2.438 2.928 7.068 1.916 9.567.556-2.47-.495-5.655-2.674-6.41-5.097.929-.143 2.137.867 2.831 1.339.334-.897.466-1.936 1.55-2.16-1.446 3.094 1.411 4.707 4.136 4.719.423 0 2.186-.178 2.186-.178-.284-.579-1.422-2.161-.594-2.8.668.623 1.461 1.124 2.184 1.68 5.297 4.097-2.519 7.898-5.716 9.623-5.015 2.711-3.674 5.937-1.578 6.762-.007.364-.231.524-.581.641-1.465.485-2.841-.559-4.01-1.23.07 2.025-.068 3.969 2.169 5.083l-1.542.561c1.325 1.009 1.729 1.542 3.322 1.749-.744.362-1.669.355-2.459.429.199.561.364 1.319.781 1.822-3.263.388-4.57-1.475-5.583-1.401-2.154.161-2.019 4.217 3.282 4.222l-.549.908s1.004.587 1.925.698c-.352.285-.691.671-.988.964l.847.73c-2.166.388-2.778-1.916-4.18-.806-2.143 1.699 2.578 5.279 7.104 4.748-.38.486-1.442 1.203-1.901 1.574 3.687 3.484 1.868 6.765 3.385 9.169-3.18-.213-5.534-2.546-6.087-5.07m4.148-3.919c1.024-.813 1.872-1.218 1.829-3.184-1.537.786-5.897.744-7.718-1.763-.515-.715.036-1.072.532-.51 1.246 1.414 3.558.773 4.4.365-.134-.488-.508-1.12-.823-1.391.315-.31 1.207-.772 1.388-1.566-.476-.259-2.325-.445-2.325-.445.297-.287.667-.684.445-1.744-1.889.581-4.223-.208-4.754-.907-.522-.688.01-1.333.45-.877.94.988 5.581 2.121 7.307.401-.64-.176-1.348-.75-1.475-1.104 1.598-.161 2.871-1.105 2.977-2.279-.883 0-2.553-.064-3.122-.492.766-.284 1.251-.56 1.493-1.418-2.922-.177-3.154-2.347-3.17-2.707 1.903 1.098 5.254.61 4.388-2.092-1.584-.085-3.179-2.646 1.175-4.998 3.958-2.144 8.457-4.454 8.059-8.254-.258-2.435-4.264-4.094-4.772-5.325-1.673.795-2.009 1.719-1.254 3.267 0 0-3.725.37-4.019-1.922-.128-1.027.558-1.99 1.297-2.723-.419 0-3.225-.752-4.072 1.534-1.573-1.075-2.917-1.034-3.978.099 1.691 1.002 2.738 4.447 5.534 5.463-1.99 1.078-5.206.627-7.082-2.685-1.776 2.674-2.798 5.325 1.011 8.153-6.932 3.154-6.882 9.184-12.911 12.056.612 1.641 1.901 1.641 3.544 1.384-2.606 3.387-.385 6.932-4.512 8.38.388 1.382 1.163 2.486 2.684 2.081-.433.675-.717.662-1.392 1.403 2.256 1.422 4.931.392 5.537-4.166.107-.815 1.229-.305.841.494-2.571 5.316 3.932 9.316 1.631 13.217 2.029-.085 3.574-.244 4.419-.927.414.816.662 1.628.573 2.427 1.121-.228 1.529-.89 1.606-1.652.735 2.144 3.36 4.431 7.559 4.431-2.228-3.174-.153-6.397-3.3-10.024" fill="#000"/><path d="M14.194 44.644c.766.801 1.694.881 3.453.772-1.932-.234-3.018-.706-3.696-1.989a19.108 19.108 0 0 1-.189-2.13c-.061-2.036.608-4.46 2.015-7.116-.009 1.665 1.31 4.284 4.256 4.719-2.647-1.158-4.204-3.764-3.356-6.287a38.09 38.09 0 0 1 1.869-2.715c.349-.447.689-.875 1.02-1.275-.353 1.284 1.202 2.614 2.241 2.837-.563-.552-1.774-2.341 1.024-5.334a13.15 13.15 0 0 0-2.299 1.402c5.083-5.491 9.262-5.646 11.183-8.409-2.781 1.902-10.142 2.928-13.452 2.03 1.826 1.219 6.226 1.108 7.301.88-3.587 3.488-11.42 7.09-12.776 10.295 1.908-2.092 3.143-2.475 4.794-3.015-1.3 1.941-2.472 3.648-3.28 5.63-2.082 4.525-4.869 4.584-5.053 8.316.951-2.893 2.878-3.627 4.217-5.525-.236 1.212-.347 2.557-.305 4.109.048 1.688.387 3.172.923 4.499-.137 1.845.028 4.999 2.143 7.078-1.438-1.819-1.745-4.777-1.617-5.93 1.654 3.194 6.378 7.609 8.659 10.575-2.281-3.816-7.877-8.272-9.075-13.417M66.461 29.309c1.643.54 2.882.923 4.789 3.015-1.352-3.205-9.193-6.807-12.779-10.295 1.077.226 5.479.339 7.302-.88-3.304.898-10.667-.128-13.451-2.03 1.924 2.763 6.099 2.918 11.185 8.409a12.949 12.949 0 0 0-2.301-1.402c2.795 2.993 1.588 4.782 1.02 5.335 1.043-.224 2.599-1.554 2.245-2.838.334.4.674.828 1.021 1.275.7.924 1.318 1.834 1.868 2.715.848 2.523-.712 5.129-3.352 6.287 2.945-.434 4.265-3.054 4.251-4.719 1.407 2.656 2.082 5.08 2.018 7.116a18.85 18.85 0 0 1-.192 2.13c-.678 1.283-1.764 1.755-3.694 1.989 1.762.109 2.685.029 3.457-.772-1.2 5.145-6.796 9.601-9.08 13.417 2.284-2.966 7-7.381 8.662-10.575.128 1.153-.182 4.111-1.617 5.93 2.115-2.079 2.278-5.233 2.142-7.079.535-1.326.87-2.81.921-4.498.05-1.552-.069-2.897-.303-4.109 1.338 1.899 3.265 2.632 4.218 5.525-.182-3.732-2.969-3.791-5.058-8.316-.804-1.982-1.972-3.689-3.272-5.63" fill="#000"/><path d="M75.872 46.828c.081.131.295 1.63.869 2.351-3-.193-1.609-6.511-4.609-4.989-.845.425-1.098 1.42-.705 2.233 1.961 4.061-2.509 7.641-2.258 11.199-1.105-.007-2.252-.037-2.967-1.523-.368.741-.956 1.782-1.277 2.786l-.897-1.524c-.557 2.524-2.912 4.859-6.087 5.07 1.51-2.404-.304-5.685 3.388-9.169-.464-.371-1.524-1.089-1.905-1.574 4.528.531 9.249-3.049 7.106-4.748-1.403-1.11-2.019 1.194-4.179.806l.847-.73c-.296-.293-.64-.678-.991-.964.923-.111 1.925-.698 1.925-.698l-.549-.908c5.302-.005 5.43-4.061 3.284-4.222-1.007-.074-2.319 1.789-5.585 1.401.411-.503.582-1.261.784-1.822-.786-.074-1.72-.067-2.461-.429 1.595-.207 1.995-.74 3.321-1.746l-1.536-.564c2.234-1.114 2.095-3.058 2.163-5.083-1.166.673-2.547 1.715-4.006 1.23-.349-.117-.576-.277-.584-.641 2.097-.825 3.433-4.051-1.577-6.762-3.195-1.725-11.017-5.526-5.717-9.623.724-.556 1.512-1.057 2.178-1.68.833.639-.304 2.221-.586 2.8 0 0 1.762.178 2.179.178 2.732-.012 5.593-1.625 4.144-4.722 1.084.226 1.214 1.268 1.545 2.161.695-.47 1.901-1.48 2.837-1.337-.759 2.423-3.939 4.602-6.412 5.097 2.497 1.36 7.131 2.372 9.566-.556 1.709 3.31-.672 4.693-3.009 6.426 8.895 4.055 7.582 8.608 13.416 12.191-.754.355-4.134-.358-4.436-.401 1.273 1.642 1.867 2.337 2.233 3.136.353.748.51 1.591.86 3.416.279 1.441.783 2.876 2.53 3.829-.687 1.245-2.209.272-2.842.105m-.347-9.052c1.641.258 2.932.258 3.545-1.382-6.032-2.872-5.979-8.902-12.911-12.056 3.811-2.828 2.783-5.479 1.014-8.153-1.875 3.312-5.101 3.763-7.081 2.685 2.79-1.016 3.842-4.461 5.533-5.465-1.058-1.132-2.408-1.172-3.982-.099-.851-2.284-3.653-1.532-4.073-1.532.735.733 1.43 1.694 1.298 2.723-.29 2.292-4.016 1.922-4.016 1.922.751-1.548.417-2.472-1.256-3.267-.51 1.231-4.51 2.89-4.77 5.323-.401 3.802 4.102 6.112 8.058 8.256 4.352 2.352 2.755 4.913 1.179 4.998-.875 2.703 2.476 3.19 4.383 2.092-.009.36-.251 2.53-3.172 2.708.246.857.729 1.133 1.494 1.417-.572.428-2.238.492-3.121.492.104 1.174 1.382 2.118 2.98 2.279-.128.352-.838.928-1.477 1.104 1.726 1.72 6.366.587 7.311-.401.432-.456.96.189.446.875-.535.701-2.866 1.49-4.756.909-.217 1.058.147 1.459.445 1.744 0 0-1.849.184-2.327.445.18.794 1.077 1.256 1.391 1.566-.314.271-.689.903-.824 1.391.848.408 3.158 1.047 4.398-.365.502-.562 1.05-.205.538.508-1.822 2.509-6.183 2.549-7.722 1.765-.043 1.966.806 2.369 1.83 3.184-3.152 3.627-1.07 6.85-3.298 10.024 4.196 0 6.821-2.29 7.557-4.431.084.762.486 1.424 1.605 1.652-.086-.801.163-1.611.57-2.427.85.683 2.399.842 4.424.927-2.297-3.901 4.204-7.901 1.626-13.217-.382-.799.738-1.307.846-.494.604 4.558 3.282 5.588 5.539 4.166-.679-.741-.96-.728-1.393-1.403 1.519.405 2.293-.699 2.684-2.081-4.125-1.448-1.904-4.993-4.515-8.382M33.551 54.369l1.237-.939c.221-.168.365-.276.616-.242l1.747.229c.095.418.376.828.376.828l-1.858-.39c-.265-.032-.342-.02-.589.158l-.879.666c-.175.137-.18.351-.08.564l.141.306-.613.465-.237-.442c-.237-.473-.253-.901.139-1.203m2.837-3.282l-.323.171c-.222.129-.336.186-.53-.055l-.14-.176c-.069-.084-.091-.292.051-.451l1.383-1.612-1.275-1.045 1.624.599.594-.741c.174.148.113.576.113.576.658 0 2.568.949 2.641 3.328 0 0 .433.638.983.672l2.813.171c.466 0 1.632-.89 3.133-.049.377-.228.784-.41 1.2-.458 1.322-.098 2.292.824 3.017 1.75.529.67 1.253 1.697 1.253 1.697-.311.37-.618.495-.876.401-.389-.2-.517-.515-.641-.949-.198-.69-.957-1.28-.957-1.28.258.464.312.989.437 1.472-1.101-1.087-1.308-2.418-2.077-2.601-.342-.085-.738.061-1.105.487.388.901.367 1.943.765 2.64.303.521.365.568.5.682.326.233.142.652.092.956l-.417 2.614h-.701l.462-2.558c.141-.779-2.045-.779-3.165-2.264-.956 1.115-3.63.836-4.789.662-.466-.07-.922-.04-1.179.42-.151.257-.403.18-.556.144l-2.111-.456c-.371-.086-.531-.014-.696.328l-.422.874c-.094.204-.088.355.08.52l.199.214c-.12.419-.501.738-.501.738l-.46-.519c-.224-.261-.236-.641-.059-1.011l.683-1.427c.082-.158.228-.33.514-.33l2.611-.04-.799-1.303c-.596-.977.392-2.718.245-3.541-.074 1.104-1.408.6-1.614.75m10.869 6.021l-1.127 2.778h-.7l1.126-2.692c.118-.347-.104-.508-.386-.889.419.236.718.39 1.224.584-.043.079-.097.123-.137.219m-13.744-.316l1.269-1.075-.193-.385c-.138-.276-.064-.293.082-.402l.669-.499c.155-.127.319-.112.507-.068l2.011.473h-2.121c-.49.032-.633.22-.809.584l-.146.297-.545 1.121c-.186.385-.283.9.205 1.48l.384.459-.781 1.58h.658l.541-1.096c.043-.04.84-.768 1.01-1.523-.23-.188-.395-.319-.267-.582l.245-.524c.08-.174.108-.245.341-.199l2.109.456c.263.073.649.188.932-.237.288-.441.328-.393.998-.326l1.077.115c1.471.139 2.941-.23 3.514-.682.199.457.597.805.784 1.161.068.132-.046.317-.137.55l-1.209 2.887h1.865l1.054-2.635c.099-.252.241-.453.349-.554l-.604 3.189h1.809l.48-3.155c.105-.701.043-.928-.294-1.216-.755-.636-.737-1.973-.981-2.784a.721.721 0 0 1 .455-.091c.395.037.69 1.043 1.156 1.691.925 1.301 2.189 2.737 3.635.715a4.44 4.44 0 0 0-.466-.642l-.404-.474c-.235-.261-1.355-1.543-1.823-2.005-1.06-1.07-2.691-.907-3.34-.388-1.471-.771-3.022.039-3.39.009l-2.532-.154a.494.494 0 0 1-.414-.243l.47-.154c-.441-1.833-1.548-3.369-3.483-3.632 0 0-.112-.579-.408-.69l-.578.679a1.98 1.98 0 0 0-.486.137l-2.469-.919 1.854 1.873s-.962 1.363-1.235 1.641c-.183.255-.165.453.038.697l.36.473c.187.245.389.234.686.083l.407-.211c.177-.149.771.143 1.026-.09a7.317 7.317 0 0 0-.282 1.453l-1.665-.199c-.364-.049-.529 0-.75.173l-1.42 1.093c-.463.356-.607.969-.322 1.567l.574 1.198M38.933 20.852c.675.465 1.872.966 1.872.966v-.795l-2.637-1.01s0 .323.765.839M40.805 19.892v-.795l-2.992-1.068s.355.379 1.12.901c.675.463 1.872.962 1.872.962M40.805 18.086v-.798l-3.277-1.206s.64.519 1.405 1.038c.675.468 1.872.966 1.872.966" fill="#000"/><path d="M50.011 28.946h3.351c-.138-.487-.66-.977-1.639-.977-.923 0-1.48.536-1.712.977M46.506 16.082l-3.272 1.206v.798s1.198-.498 1.874-.966c.762-.519 1.398-1.038 1.398-1.038M45.868 20.013l-2.634 1.01v.795s1.198-.501 1.874-.966c.76-.516.76-.839.76-.839M46.225 18.029l-2.991 1.068v.795s1.199-.497 1.874-.962c.76-.522 1.117-.901 1.117-.901M32.306 27.969c-.978 0-1.498.49-1.637.977h3.354c-.239-.442-.787-.977-1.717-.977" fill="#000"/><path d="M42.02 15.687l-5.384-2.127c.457-1.081 2.568-2.004 5.384-2.004 2.815 0 4.922.923 5.38 2.004l-5.38 2.127zm4.006 6.645l-3.627 1.909v-7.712l4.928-1.673-1.301 7.476zm4.242 3.215c-1.36.236-2.529 1.9-3.487 3.399l-.107.173h-1.022l-.005.177c-.105 1.158-1.203 2.729-3.63 2.729-1.12 0-1.963-.342-2.546-.81a3.003 3.003 0 0 1-.973-1.398 2.496 2.496 0 0 1-.109-.521l-.008-.177h-1.014l-.11-.173c-.963-1.499-2.132-3.163-3.487-3.399l3.702-2.149 4.548 2.471 4.542-2.471 3.706 2.149zm4.994 5.668c-.39 1.01-.702 2.106-.702 3.203v11.776h-1.369c-.622-.603-1.148-2.609-1.148-2.609-.34.723.051 2.185.414 2.609h-1.763c-.438-.59-.815-2.682-.815-2.682-.528.601-.193 2.229.134 2.682h-1.172c-.073-.836.166-1.748.166-1.748-.614-.113-1.265-.435-1.264-1.117.311.289.437.285.866.277l.497-.393c-1.651.054-1.728-1.76-.418-2.608-1.31.042-2.288-.737-1.811-2.127-.931-.481-1.26-2.057-.572-2.751-.498-.54-.581-1.601-.261-2.325-.66 0-1.403-.264-1.817-.713-.031.014-.069.024-.104.037.826-.338 1.524-.861 1.996-1.511h9.143zm-.698 23.393c0 2.455-1.135 4.322-3.023 5.355l.677-1.375h-.655l-.867 1.762c-.899.342-1.921.527-3.047.527-3.446 0-4.356.14-5.628 1.409-1.279-1.269-2.188-1.409-5.628-1.409-1.119 0-2.138-.183-3.032-.52h.022l.869-1.769h-.654l-.762 1.548a6.425 6.425 0 0 1-.527-.279l.625-1.269h-.65l-.465.944c-1.477-1.086-2.343-2.781-2.343-4.924v-7.723h25.088v7.723zM37.487 40.504l1.056.132c.08.578-.072 1.561-.449 2.109l-1.025-.295c.274-.649.342-1.255.418-1.946zm-1.524-.773s.971-.047 1.246.055c.202.085.064.425-.197.387-.274-.033-1.049-.442-1.049-.442zm-.064-3.854l-.872 3.179.297-5.129 1.352-1.155.688 1.508-1.738 4.981.458-3.353c.044-.233-.147-.259-.185-.031zm-.67 5.302c-.456.18-.924-.067-.78-.362.211.192.802.098.802.098l-.022.264zm-.859.423c.213.203.85.126.85.126l.024.128c-.279.371-1.05.203-.874-.254zm-1.001-2.048c-.243-.164-.133-.518.137-.518.296.008.692.344 1.083.511 0 0-1.024.139-1.22.007zm.97 2.82s.293.122.664.151c-.043.204-.2.4-.45.343-.208-.046-.301-.303-.214-.494zm.688-1.922c-.492.159-.707-.196-.686-.498.963-.35 1.392-.125 1.672.055.259.164.474.627.822.917-.057.395-.178.966-.32 1.347-.983-.252-1.035-1.12-.668-1.647-.205-.241-.423-.302-.82-.174zm4.266.283l1.053.124c.104.58-.094 1.809-.49 2.396l-1.074-.311c.429-.563.586-1.564.511-2.209zm1.812.22l.869.109c.138.722.047 1.971-.413 2.681l-1.01-.293c.441-.602.65-1.843.554-2.497zm1.556.194h.02a1.29 1.29 0 0 0 .68-.094c.469.673.838 2.2.274 3.153-.32.006-.633-.05-.926-.134l-.233-.069c.475-.738.407-2.041.185-2.856zm1.329-.513l.617-.605c.627.549 1.451 1.774 1.195 2.937l-.673.617a2.484 2.484 0 0 1-.428.322c.419-1.039-.116-2.638-.711-3.271zm3.615.345c-.134.179-.244.39-.314.618l-.748.687c.15-1.094-.587-2.391-1.258-2.919l.796-.781.159.161c-.266.698.254 2.07 1.365 2.234zm-1.988-5.298c-.393.751-.353 1.617.11 2.403l-.309.303c-1.342-.168-1.873-2.17-1.873-2.17-.026.18-.043.356-.04.534-.783-.289-1.279-.985-1.239-1.939.296.165.63.282.984.342l.092-.585c-.939-.163-1.487-.75-1.695-1.442-.045-.004-.085-.015-.128-.018.168.014.331.027.502.027.557 0 1.085-.086 1.581-.232.389.554 1.081.952 1.775 1.03-.109.455-.055 1.032.24 1.747zm-7.7-4.468c.648.887 1.7 1.543 2.944 1.8.106.468.359.98.853 1.393-.205 1.377.386 2.663 1.868 3.005.155.701.592 1.233 1.32 1.484l-1.03 1.19c-.392.456-.906.602-1.332.549l-4.602-.525c.2-.51-.331-1.101-1.787-.847l1.809-5.06-1.103-2.346-2.093 1.786-.153 5.305-.888-.438c-1.169-.504-1.509 1.608-.4 1.617l.441.005c-.028.217.038.457.208.53-.208.087-.271.482-.007.621-.266.124-.302.526-.088.699-.233.391-.267 1.235.539 1.449.66.174 1.073-.538 1.21-.951l7.159 2.217c1.015.291 1.735.128 2.576-.61l1.868-1.634c-.235 1.069.15 2.033.964 2.35 0 0-.117.96-.08 1.39H29.476V34.418c0-1.097-.316-2.193-.693-3.203h9.134zm-1.209-16.359l4.926 1.673v7.712l-3.629-1.909-1.297-7.476zm11.968-.918c0-1.885-3.167-3.573-6.659-3.573-3.495 0-6.662 1.688-6.662 3.573l.073.462 1.39 8.005-6.602 3.849c-.703.411-1.582 1.549-1.693 2.692h1.204c.199-1.141 1.102-2.41 2.787-2.332 1.524.081 2.427 1.007 3.324 2.332l.23.35.333.521h-9.71c.713 1.433 1.392 2.953 1.392 4.601v20.19c0 5.194 3.99 7.667 8.31 7.667 3.337 0 3.787-.152 5.628 1.69 1.836-1.842 2.285-1.69 5.628-1.69 4.317 0 8.309-2.473 8.309-7.667v-20.19c0-1.648.676-3.168 1.389-4.601h-9.715l.334-.521.232-.35c.892-1.325 1.798-2.251 3.324-2.332 1.678-.078 2.586 1.191 2.784 2.332h1.202c-.107-1.143-.991-2.281-1.691-2.692l-6.603-3.849 1.393-8.005.069-.462z" fill="#000"/><path d="M53.99 38.824l.011-.59c-1.812-.042-2.227-2.178-2.227-2.178-.53 1.572.853 2.744 2.216 2.768M51.703 42.442l-.181-.558c-1.545.395-2.344-2.053-2.344-2.053-.495 1.778 1.23 3.037 2.525 2.611M52.777 40.173c-1.847.292-2.604-1.856-2.604-1.856-.205 1.169.552 2.356 1.775 2.481-.276 1.527 1.141 2.309 2.368 1.765l-.177-.532c-1.066.358-2.066-.697-1.362-1.858M51.672 34.046l.016-.592c-2.436-.502-2.233-2.179-2.233-2.179-.525 1.58.858 2.746 2.217 2.771M36.236 58.588l-.872 1.769h.655l.87-1.769h-.653M37.551 58.588l-.87 1.769h.662l.862-1.769h-.654M42.825 58.588l-.867 1.769h.653l.87-1.769h-.656M44.147 58.588l-.875 1.769h.659l.867-1.769h-.651M41.509 58.588l-.872 1.769h.655l.872-1.769h-.655M49.212 60.357h.656l.871-1.769h-.657l-.87 1.769M38.871 58.588l-.869 1.769h.657l.87-1.769h-.658M40.185 58.588l-.87 1.769h.661l.869-1.769h-.66M37.203 49.082c-.119 0-.224.117-.224.267 0 .146.105.266.224.266.125 0 .23-.12.23-.266 0-.15-.105-.267-.23-.267M36.935 8.207l1.039-2.2 1.923 1.022 2.124-2.097 2.124 2.097 1.923-1.022 1.026 2.2 1.279-.196a9.64 9.64 0 0 0-.802 1.902c-1.398-.815-3.475-1.443-5.55-1.443-2.082 0-4.153.628-5.552 1.443a9.89 9.89 0 0 0-.806-1.902l1.272.196zm5.086.964c2.704 0 4.868.896 6.064 1.858 0 0 .358-2.146 1.568-4.03l-2.179.244-1.138-2.425-2.191 1.14-2.124-2.107-2.124 2.107-2.195-1.14-1.139 2.425-2.178-.244c1.214 1.884 1.567 4.03 1.567 4.03 1.193-.962 3.363-1.858 6.069-1.858z" fill="#000"/><path d="M44.243 4.834a.58.58 0 0 0 .624-.524c.031-.316-.43-1.16-.43-1.16s-.693.744-.715 1.061a.578.578 0 0 0 .521.623M47.813 6.127a.57.57 0 0 0 .775-.242c.153-.277.053-1.233.053-1.233s-.919.415-1.07.697a.582.582 0 0 0 .242.778M39.79 4.834a.578.578 0 0 0 .528-.623c-.03-.317-.715-1.061-.715-1.061s-.46.844-.43 1.16c.025.311.307.55.617.524M36.227 6.127a.576.576 0 0 0 .238-.778c-.149-.282-1.07-.697-1.07-.697s-.098.956.057 1.233a.57.57 0 0 0 .775.242M75.707 26.172c.235.523.701 2.34-.413 3.726-1.268-2.537-3.015-4.71-4.427-5.648-.309-.2.17-.555 1.041-.669 2.631-.499 5.713.615 7.183 1.006-.684.511-1.24.741-1.937.827 1.067.895 1.844 1.653 2.394 2.495-1.034.256-1.615-.397-3.841-1.737m3.32-.431c.759-.27 1.348-.995 1.64-1.667-1.934-.277-7.073-2.435-11.298-.678 1.582-1.501 3.004-1.697 3.139-3.856.655.473 1.764.739 2.389-.388-.436-1.286-1.535-.245-1.691-.598-.214-.493 1.389.151 1.731-1.52-1.246-.427-1.619.59-1.841.354-.207-.225.791-.654.057-2.001-1.297.759-.623 1.614-.896 1.711-.333.131-.071-.913-1.505-.865-.141 1.541 1.347 1.588 1.104 1.834-.296.298-.685-.886-1.768-.286.02 1.245 1.027 1.928 2.068 1.634-.171 2.364-2.338 1.924-3.954 4.587 3.421 1.754 4.968 4.813 7.074 6.928.695-.493 1.883-2.688 1.883-2.688 2.278 1.765 3.879.008 3.879.008-.784-.804-.811-1.414-2.011-2.509M48.765 69.06l-1.16-3.772c2.471-.511 4.192-1.037 5.505-1.543v2.353l2.037.821a33.235 33.235 0 0 1-6.382 2.141m-6.744 2.207c-2.305 0-4.555-.345-6.479-.817l1.224-3.957c.811.189 2.842.438 5.255.438 2.416 0 4.437-.249 5.253-.438l1.228 3.957c-1.932.472-4.183.817-6.481.817m-13.133-4.348l2.041-.821v-2.353c1.313.506 3.033 1.032 5.504 1.543l-1.158 3.772a33.558 33.558 0 0 1-6.387-2.141m24.853-1.309v-2.888c-2.231 1.023-5.071 1.852-8.722 2.18l-.167 1.033c.311.043.704.081 1.229.115a34.794 34.794 0 0 1-4.06.275c-.959 0-2.706-.09-4.061-.275.523-.034.914-.072 1.224-.115l-.165-1.033c-3.652-.328-6.495-1.157-8.72-2.18v2.888l-3.027 1.241c2.241 1.166 4.822 2.117 7.804 2.885l-.354 1.208c1.708.501 4.437 1.013 7.299 1.013 2.861 0 5.588-.512 7.296-1.013l-.352-1.208c2.979-.768 5.565-1.719 7.806-2.885l-3.03-1.241M4.487 27.909c.552-.842 1.326-1.6 2.4-2.492-.702-.089-1.253-.319-1.943-.83 1.471-.391 4.562-1.505 7.193-1.006.864.114 1.351.469 1.035.667-1.414.94-3.161 3.113-4.431 5.648-1.111-1.384-.642-3.201-.412-3.724-2.222 1.341-2.801 1.993-3.842 1.737m2.393.333s1.19 2.195 1.88 2.686c2.109-2.113 3.659-5.172 7.076-6.926-1.617-2.663-3.789-2.216-3.949-4.587 1.038.294 2.043-.392 2.064-1.634-1.087-.597-1.475.59-1.767.286-.244-.25 1.245-.293 1.103-1.834-1.434-.044-1.171.996-1.508.865-.269-.098.405-.953-.898-1.711-.73 1.353.269 1.775.063 2.001-.222.236-.598-.781-1.842-.354.337 1.671 1.947 1.027 1.729 1.52-.153.353-1.252-.688-1.685.598.62 1.127 1.731.861 2.382.389.139 2.167 1.556 2.349 3.142 3.855-4.224-1.757-9.363.399-11.304.681.298.669.885 1.394 1.645 1.658C3.813 26.84 3.784 27.447 3 28.25c0 0 1.598 1.757 3.88-.008M40.169 26.632v1.271c.438-.526 1.285-.422 1.285-.422v1.83s-.03.903-.349 1.291h1.833c-.32-.388-.349-1.291-.349-1.291v-1.83s.845-.104 1.283.422v-1.271h-3.703" fill="#000"/></g></svg></svg>